<?xml version="1.0" encoding="utf-8"?>
<!-- Generator: Adobe Illustrator 17.1.0, SVG Export Plug-In . SVG Version: 6.00 Build 0)  -->
<!DOCTYPE svg PUBLIC "-//W3C//DTD SVG 1.1//EN" "http://www.w3.org/Graphics/SVG/1.1/DTD/svg11.dtd">
<svg version="1.1" id="Layer_1" xmlns="http://www.w3.org/2000/svg" xmlns:xlink="http://www.w3.org/1999/xlink" x="0px" y="0px"
	 width="30px" height="30px" viewBox="0 0 30 30" enable-background="new 0 0 30 30" xml:space="preserve">
<g>
	<path fill="none" d="M9.4,13.9c0.3,0,0.6-0.3,0.6-0.6V12c0-0.3-0.3-0.6-0.6-0.6c-0.3,0-0.6,0.3-0.6,0.6v1.3
		C8.8,13.6,9,13.9,9.4,13.9z M9.4,3.3C9,3.3,8.8,3.6,8.8,3.9v1.3c0,0.3,0.3,0.6,0.6,0.6c0.3,0,0.6-0.3,0.6-0.6V3.9
		C10,3.6,9.7,3.3,9.4,3.3z M9.4,17.9c0.3,0,0.6-0.3,0.6-0.6V16c0-0.3-0.3-0.6-0.6-0.6c-0.3,0-0.6,0.3-0.6,0.6v1.3
		C8.8,17.7,9,17.9,9.4,17.9z M8.9,21.7c0.2,0,0.3-0.1,0.4-0.2l0.3-0.3H10c0.3,0,0.6-0.3,0.6-0.6c0-0.3-0.3-0.6-0.6-0.6
		c0-0.3-0.3-0.6-0.6-0.6c-0.3,0-0.6,0.3-0.6,0.6v0.4l-0.3,0.3c-0.2,0.2-0.2,0.6,0,0.9C8.6,21.6,8.8,21.7,8.9,21.7z M12.7,21.2H14
		c0.3,0,0.6-0.3,0.6-0.6c0-0.3-0.3-0.6-0.6-0.6h-1.3c-0.3,0-0.6,0.3-0.6,0.6C12.1,21,12.3,21.2,12.7,21.2z M16.7,21.2H18
		c0.3,0,0.6-0.3,0.6-0.6c0-0.3-0.3-0.6-0.6-0.6h-1.3c-0.3,0-0.6,0.3-0.6,0.6C16.1,21,16.4,21.2,16.7,21.2z M24.7,21.2h1.3
		c0.3,0,0.6-0.3,0.6-0.6c0-0.3-0.3-0.6-0.6-0.6h-1.3c-0.3,0-0.6,0.3-0.6,0.6C24.1,21,24.4,21.2,24.7,21.2z M30,0.5c0,0,0-0.1,0-0.1
		c-0.1-0.2-0.2-0.3-0.3-0.3c0,0-0.1,0-0.1,0c0,0-0.1,0-0.1,0h-20c0,0-0.1,0-0.1,0c0,0-0.1,0-0.1,0C9.1,0.1,9,0.1,8.9,0.2L0.2,8.9
		c0,0,0,0,0,0C0.1,9,0.1,9.1,0,9.1c0,0.1,0,0.2,0,0.2v20c0,0.1,0,0.2,0,0.2c0,0,0,0.1,0.1,0.1c0,0,0,0.1,0.1,0.1c0,0,0,0,0.1,0
		c0,0,0.1,0.1,0.1,0.1C0.5,30,0.5,30,0.6,30h20c0.1,0,0.2,0,0.2,0c0.1,0,0.1-0.1,0.2-0.1c0,0,0,0,0,0l8.8-8.8
		c0.1-0.1,0.1-0.1,0.1-0.2c0,0,0-0.1,0-0.1c0,0,0-0.1,0-0.1v-20C30,0.6,30,0.5,30,0.5z M20,28.7H1.7c0-0.1-0.1-0.2-0.1-0.3
		c-0.1-0.1-0.2-0.1-0.3-0.1V10H20V28.7z M20.4,8.7H10V7.9c0-0.3-0.3-0.6-0.6-0.6C9,7.3,8.8,7.6,8.8,7.9v0.8H2.1l7-7
		c0.1,0,0.2,0.1,0.3,0.1c0.3,0,0.6-0.3,0.6-0.6h17.9L20.4,8.7z M28.8,20c-0.3,0-0.6,0.3-0.6,0.6c0,0.1,0,0.2,0.1,0.3l-7,7v-6.6h0.8
		c0.3,0,0.6-0.3,0.6-0.6c0-0.3-0.3-0.6-0.6-0.6h-0.8V9.6l7.5-7.5V20z M3,27.6c0.2,0,0.3-0.1,0.4-0.2l1-1c0.2-0.2,0.2-0.6,0-0.9
		c-0.2-0.2-0.6-0.2-0.9,0l-1,1c-0.2,0.2-0.2,0.6,0,0.9C2.7,27.5,2.9,27.6,3,27.6z M6,24.6c0.2,0,0.3-0.1,0.4-0.2l1-1
		c0.2-0.2,0.2-0.6,0-0.9c-0.2-0.2-0.6-0.2-0.9,0l-1,1c-0.2,0.2-0.2,0.6,0,0.9C5.7,24.6,5.8,24.6,6,24.6z"/>
</g>
</svg>
