<svg xmlns="http://www.w3.org/2000/svg" width="25" height="22" viewBox="0 0 25 22"><path fill="#0074b8" d="M21.3 3.18A13.35 13.35 0 0 0 12.5 0C9.18 0 6.06 1.12 3.7 3.17A10.32 10.32 0 0 0 0 10.99c0 2.34.85 4.63 2.42 6.51-.3.59-.73 1.06-1.26 1.41-.44.28-.65.8-.53 1.31.11.5.52.87 1.04.94 1.05.15 3.11.22 5.02-.92a.92.92 0 0 0 .32-1.26.93.93 0 0 0-1.27-.32c-.8.47-1.63.67-2.37.72a5.7 5.7 0 0 0 1-1.74.91.91 0 0 0-.19-.94 8.26 8.26 0 0 1-2.33-5.71c0-5.05 4.78-9.16 10.65-9.16s10.65 4.11 10.65 9.16-4.78 9.17-10.65 9.17c-.85 0-1.7-.09-2.52-.26a.92.92 0 0 0-1.1.71c-.1.5.22.98.71 1.09.95.2 1.93.3 2.91.3 3.32 0 6.44-1.13 8.8-3.18A10.3 10.3 0 0 0 25 11c0-2.96-1.32-5.74-3.7-7.82zm-3.65 6.89H7.35a.92.92 0 1 0 0 1.84h10.3c.51 0 .93-.41.93-.92 0-.5-.42-.92-.93-.92zm0-3.47H7.35a.92.92 0 0 0-.93.92c0 .5.41.92.93.92h10.3c.51 0 .93-.42.93-.92a.92.92 0 0 0-.93-.92zm0 6.95H7.35a.92.92 0 1 0 0 1.84h10.3c.51 0 .93-.41.93-.92a.92.92 0 0 0-.93-.92z"/></svg>