<svg xmlns="http://www.w3.org/2000/svg" width="26" height="33" viewBox="0 0 26 33"><path fill="#fff" d="M12.88 7.67l.24.03a1.2 1.2 0 0 0 1.2-.95 4 4 0 0 1 .85-1.85 4.98 4.98 0 0 1 2.7-1.38c-.03.4-.09.86-.22 1.32-.18.63.2 1.28.85 1.45a1.21 1.21 0 0 0 1.5-.82c.48-1.74.25-3.38.25-3.45A1.2 1.2 0 0 0 19.02 1c-.15 0-3.7.1-5.7 2.36a6.3 6.3 0 0 0-1.39 2.92c-.13.64.3 1.26.95 1.4zm12.27 15.08a4.33 4.33 0 0 1-3.1-4.13c0-1.67 1.01-3.2 2.56-3.92.32-.14.56-.41.65-.74.1-.33.04-.68-.15-.96a8.73 8.73 0 0 0-7.28-3.89c-1.37 0-2.92.52-4.44 1.46A8.66 8.66 0 0 0 8.96 9.1C4.5 9.11 0 12.52 0 19.03 0 25.19 4.22 33 8.96 33c1.37 0 2.92-.51 4.43-1.46A8.65 8.65 0 0 0 17.83 33c3.67 0 6.78-4.55 8.12-8.78.19-.62-.16-1.28-.8-1.47zm-7.32 7.89a6.86 6.86 0 0 1-3.71-1.48 1.24 1.24 0 0 0-1.45 0 6.86 6.86 0 0 1-3.71 1.48c-2.7 0-6.53-6-6.53-11.61 0-5.2 3.38-7.56 6.53-7.56 1.06 0 2.41.54 3.71 1.48.43.3 1.02.3 1.45 0a6.87 6.87 0 0 1 3.71-1.48c1.7 0 3.3.68 4.47 1.86a6.66 6.66 0 0 0-2.67 5.3 6.64 6.64 0 0 0 3.64 5.9c-1.33 3.45-3.65 6.11-5.44 6.11z"/></svg>