<svg id="SvgjsSvg1000" xmlns="http://www.w3.org/2000/svg" version="1.1" xmlns:xlink="http://www.w3.org/1999/xlink" xmlns:svgjs="http://svgjs.com/svgjs" width="26" height="18" viewBox="0 0 26 18"><title>Фигура 7 копия 4</title><desc>Created with Avocode.</desc><defs id="SvgjsDefs1001"></defs><path id="SvgjsPath1007" d="M26.149 25.222C26.489900000000002 24.9008 27.0573 24.9008 27.4101 25.222C27.751 25.532400000000003 27.751 26.049200000000003 27.4101 26.358700000000002L21.0158 32.181000000000004H42.116C42.6079 32.181900000000006 42.9988 32.53810000000001 42.9988 32.9855C42.9988 33.433800000000005 42.6079 33.801300000000005 42.116 33.801300000000005H21.0158L27.4101 39.61260000000001C27.751 39.93410000000001 27.751 40.45150000000001 27.4101 40.76070000000001C27.0573 41.08250000000001 26.4891 41.08250000000001 26.149 40.76070000000001L18.241 33.56060000000001C17.8882 33.24980000000001 17.8882 32.73340000000001 18.241 32.42360000000001Z " fill="#0071b2" fill-opacity="1" transform="matrix(1,0,0,1,-17,-24)"></path><path id="SvgjsPath1008" d="M26.149 25.222C26.489900000000002 24.9008 27.0573 24.9008 27.4101 25.222C27.751 25.532400000000003 27.751 26.049200000000003 27.4101 26.358700000000002L21.0158 32.181000000000004H42.116C42.6079 32.181900000000006 42.9988 32.53810000000001 42.9988 32.9855C42.9988 33.433800000000005 42.6079 33.801300000000005 42.116 33.801300000000005H21.0158L27.4101 39.61260000000001C27.751 39.93410000000001 27.751 40.45150000000001 27.4101 40.76070000000001C27.0573 41.08250000000001 26.4891 41.08250000000001 26.149 40.76070000000001L18.241 33.56060000000001C17.8882 33.24980000000001 17.8882 32.73340000000001 18.241 32.42360000000001Z " fill="#0074b8" fill-opacity="1" transform="matrix(1,0,0,1,-17,-24)"></path></svg>