<?xml version="1.0" encoding="utf-8"?>
<!-- Generator: Adobe Illustrator 19.2.0, SVG Export Plug-In . SVG Version: 6.00 Build 0)  -->
<svg version="1.0" id="Layer_1" xmlns="http://www.w3.org/2000/svg" xmlns:xlink="http://www.w3.org/1999/xlink" x="0px" y="0px"
	 viewBox="0 0 50 50" style="enable-background:new 0 0 50 50;" xml:space="preserve">
<style type="text/css">
	.st0{fill:#2775BA;}
</style>
<g>
	<g>
		<path class="st0" d="M40.7,29.6c-0.6-0.6-1.6-0.6-2.2,0.1l-8.2,8.2c-0.6,0.6-0.7,1.6-0.1,2.2c0.6,0.6,1.6,0.6,2.2-0.1l8.2-8.2
			C41.2,31.2,41.3,30.2,40.7,29.6z M19,29.8c-0.6-0.6-1.6-0.6-2.2,0.1l-3,3l-3-3c-0.6-0.6-1.6-0.7-2.2-0.1C8,30.4,8.1,31.4,8.7,32
			l3,3l-3,3c-0.6,0.6-0.7,1.6-0.1,2.2c0.6,0.6,1.6,0.6,2.2-0.1l3-3l3,3c0.6,0.6,1.6,0.7,2.2,0.1c0.6-0.6,0.6-1.6-0.1-2.2l-3-3l3-3
			C19.6,31.4,19.7,30.4,19,29.8z M45.5,0H4.5C2,0,0,2,0,4.5v41.1C0,48,2,50,4.5,50h41.1c2.5,0,4.5-2,4.5-4.5V4.5C50,2,48,0,45.5,0z
			 M47.1,45.9c0,0.7-0.6,1.3-1.3,1.3H4.1c-0.7,0-1.3-0.6-1.3-1.3V4.1c0-0.7,0.6-1.3,1.3-1.3h41.7c0.7,0,1.3,0.6,1.3,1.3V45.9z
			 M19.6,13.9h-4.3V9.6c0-0.9-0.6-1.6-1.5-1.6c-0.9,0-1.5,0.7-1.5,1.6v4.3H8.1c-0.9,0-1.6,0.6-1.6,1.5c0,0.9,0.7,1.5,1.6,1.5h4.3
			v4.3c0,0.9,0.6,1.6,1.5,1.6c0.9,0,1.5-0.7,1.5-1.6v-4.3h4.3c0.9,0,1.6-0.6,1.6-1.5C21.2,14.5,20.5,13.9,19.6,13.9z M41.2,13.9
			H29.7c-0.9,0-1.6,0.6-1.6,1.5c0,0.9,0.7,1.5,1.6,1.5h11.5c0.9,0,1.6-0.6,1.6-1.5C42.8,14.5,42.1,13.9,41.2,13.9z M32.7,31.2
			c0-0.9-0.8-1.7-1.7-1.7s-1.7,0.8-1.7,1.7c0,0.9,0.8,1.7,1.7,1.7S32.7,32.1,32.7,31.2z M40,36.7c-0.9,0-1.7,0.8-1.7,1.7
			c0,0.9,0.8,1.7,1.7,1.7c0.9,0,1.7-0.8,1.7-1.7C41.7,37.5,40.9,36.7,40,36.7z"/>
	</g>
</g>
</svg>
