<?xml version="1.0" encoding="utf-8"?>
<!-- Generator: Adobe Illustrator 17.1.0, SVG Export Plug-In . SVG Version: 6.00 Build 0)  -->
<!DOCTYPE svg PUBLIC "-//W3C//DTD SVG 1.1//EN" "http://www.w3.org/Graphics/SVG/1.1/DTD/svg11.dtd">
<svg version="1.1" id="Layer_1" xmlns="http://www.w3.org/2000/svg" xmlns:xlink="http://www.w3.org/1999/xlink" x="0px" y="0px"
	 width="26px" height="26px" viewBox="0 0 26 26" enable-background="new 0 0 26 26" xml:space="preserve">
<g>
	<path fill="none" d="M0,0v26h26V0H0z M12.2,24.4H1.6V13.8h10.6V24.4z M12.2,12.2H1.6V1.6h10.6V12.2z M24.4,24.4H13.8V13.8h10.6
		V24.4z M24.4,12.2H13.8V1.6h10.6V12.2z M10.3,20.2H3.5v1.6h6.8V20.2z M10.3,16.4H3.5V18h6.8V16.4z M16.2,8.7l1.1,1.1L19.1,8
		l1.8,1.8l1.1-1.1l-1.8-1.8L22,5.1L20.9,4l-1.8,1.8l-1.8-1.8l-1.1,1.1L18,6.9L16.2,8.7z M6.1,10.2h1.6V7.7h2.6V6.1H7.7V3.6H6.1v2.5
		H3.5v1.6h2.6V10.2z M22.5,18.3h-6.8v1.6h6.8V18.3z"/>
</g>
</svg>
