<?xml version="1.0" encoding="utf-8"?>
<!-- Generator: Adobe Illustrator 17.1.0, SVG Export Plug-In . SVG Version: 6.00 Build 0)  -->
<!DOCTYPE svg PUBLIC "-//W3C//DTD SVG 1.1//EN" "http://www.w3.org/Graphics/SVG/1.1/DTD/svg11.dtd">
<svg version="1.1" id="Layer_1" xmlns="http://www.w3.org/2000/svg" xmlns:xlink="http://www.w3.org/1999/xlink" x="0px" y="0px"
	 width="24px" height="22px" viewBox="0 0 24 22" enable-background="new 0 0 24 22" xml:space="preserve">
<path fill="none" d="M22.2,2.3h-2.4V1c0-0.5-0.5-1-1-1h-1.5c-0.6,0-1,0.5-1,1v1.3H7.7V1c0-0.5-0.5-1-1-1H5.3c-0.6,0-1,0.5-1,1v1.3
	H1.8C0.8,2.3,0,3.1,0,4.1v16.1c0,1,0.8,1.8,1.8,1.8h20.4c1,0,1.8-0.8,1.8-1.8V4.1C24,3.1,23.2,2.3,22.2,2.3z M17.4,1.1h1.3v1.8v1.4
	h-1.3V2.9V1.1z M5.3,1.1h1.3v1.8v1.4H5.3V2.9V1.1L5.3,1.1z M1.8,3.4h2.5v1c0,0.5,0.5,1,1,1h1.5c0.6,0,1-0.5,1-1v-1h8.6v1
	c0,0.5,0.5,1,1,1h1.5c0.6,0,1-0.5,1-1v-1h2.4c0.4,0,0.7,0.3,0.7,0.7V7H1.1V4.1C1.1,3.7,1.4,3.4,1.8,3.4z M22.2,20.9H1.8
	c-0.4,0-0.7-0.3-0.7-0.7V8h21.8v12.2C22.9,20.6,22.6,20.9,22.2,20.9z M5.8,11c0,0.3-0.2,0.5-0.5,0.5H3.6c-0.3,0-0.5-0.2-0.5-0.5
	c0-0.3,0.2-0.5,0.5-0.5h1.7C5.6,10.4,5.8,10.7,5.8,11z M10.9,11c0,0.3-0.2,0.5-0.5,0.5H8.6c-0.3,0-0.5-0.2-0.5-0.5
	c0-0.3,0.2-0.5,0.5-0.5h1.7C10.6,10.4,10.9,10.7,10.9,11z M15.8,11c0,0.3-0.2,0.5-0.5,0.5h-1.7c-0.3,0-0.5-0.2-0.5-0.5
	c0-0.3,0.2-0.5,0.5-0.5h1.7C15.6,10.4,15.8,10.7,15.8,11z M20.9,11c0,0.3-0.2,0.5-0.5,0.5h-1.7c-0.3,0-0.5-0.2-0.5-0.5
	c0-0.3,0.2-0.5,0.5-0.5h1.7C20.6,10.4,20.9,10.7,20.9,11z M5.8,14.5c0,0.3-0.2,0.5-0.5,0.5H3.6c-0.3,0-0.5-0.2-0.5-0.5
	c0-0.3,0.2-0.5,0.5-0.5h1.7C5.6,14,5.8,14.2,5.8,14.5z M10.9,14.5c0,0.3-0.2,0.5-0.5,0.5H8.6c-0.3,0-0.5-0.2-0.5-0.5
	c0-0.3,0.2-0.5,0.5-0.5h1.7C10.6,14,10.9,14.2,10.9,14.5z M15.8,14.5c0,0.3-0.2,0.5-0.5,0.5h-1.7c-0.3,0-0.5-0.2-0.5-0.5
	c0-0.3,0.2-0.5,0.5-0.5h1.7C15.6,14,15.8,14.2,15.8,14.5z M20.9,14.5c0,0.3-0.2,0.5-0.5,0.5h-1.7c-0.3,0-0.5-0.2-0.5-0.5
	c0-0.3,0.2-0.5,0.5-0.5h1.7C20.6,14,20.9,14.2,20.9,14.5z M5.8,18.1c0,0.3-0.2,0.5-0.5,0.5H3.6c-0.3,0-0.5-0.2-0.5-0.5
	s0.2-0.5,0.5-0.5h1.7C5.6,17.5,5.8,17.8,5.8,18.1z M10.9,18.1c0,0.3-0.2,0.5-0.5,0.5H8.6c-0.3,0-0.5-0.2-0.5-0.5s0.2-0.5,0.5-0.5
	h1.7C10.6,17.5,10.9,17.8,10.9,18.1z M15.8,18.1c0,0.3-0.2,0.5-0.5,0.5h-1.7c-0.3,0-0.5-0.2-0.5-0.5s0.2-0.5,0.5-0.5h1.7
	C15.6,17.5,15.8,17.8,15.8,18.1z M20.9,18.1c0,0.3-0.2,0.5-0.5,0.5h-1.7c-0.3,0-0.5-0.2-0.5-0.5s0.2-0.5,0.5-0.5h1.7
	C20.6,17.5,20.9,17.8,20.9,18.1z"/>
</svg>
