<?xml version="1.0" encoding="utf-8"?>
<!-- Generator: Adobe Illustrator 17.1.0, SVG Export Plug-In . SVG Version: 6.00 Build 0)  -->
<!DOCTYPE svg PUBLIC "-//W3C//DTD SVG 1.1//EN" "http://www.w3.org/Graphics/SVG/1.1/DTD/svg11.dtd">
<svg version="1.1" id="Layer_1" xmlns="http://www.w3.org/2000/svg" xmlns:xlink="http://www.w3.org/1999/xlink" x="0px" y="0px"
	 width="28px" height="24px" viewBox="0 0 28 24" enable-background="new 0 0 28 24" xml:space="preserve">
<path fill="none" d="M25.822,3.158h-6.524l-1.01-2.563C18.147,0.236,17.804,0,17.422,0h-6.844c-0.382,0-0.725,0.236-0.867,0.596
	l-1.01,2.563H2.178C0.975,3.158,0,4.148,0,5.369v8.048c0,0.299,0.239,0.541,0.533,0.541h0.711v8.779C1.244,23.435,1.802,24,2.489,24
	h22.815c0.802,0,1.452-0.66,1.452-1.474v-8.569h0.622c0.344,0,0.622-0.283,0.622-0.631V5.369C28,4.148,27.025,3.158,25.822,3.158z
	 M11.21,1.895h5.581l0.498,1.263h-6.576L11.21,1.895z M24.889,21.79c0,0.174-0.139,0.316-0.311,0.316H3.422
	c-0.172,0-0.311-0.141-0.311-0.316v-7.832h7.342v0.884c0,0.523,0.418,0.947,0.933,0.947h5.227c0.515,0,0.933-0.424,0.933-0.947
	v-0.884h7.342V21.79L24.889,21.79z M12.32,13.832c0-0.617,0-1.088,0-1.705h3.36c0,0.617,0,1.088,0,1.705H12.32z M26.133,12.063
	c-0.241,0-7.498,0-8.587,0v-0.884c0-0.523-0.418-0.947-0.933-0.947h-5.227c-0.516,0-0.933,0.424-0.933,0.947v0.884
	c-1.099,0-8.322,0-8.587,0V5.369c0-0.174,0.139-0.316,0.311-0.316h23.645c0.172,0,0.311,0.141,0.311,0.316V12.063L26.133,12.063z"/>
</svg>
