<?xml version="1.0" encoding="utf-8"?>
<!-- Generator: Adobe Illustrator 17.1.0, SVG Export Plug-In . SVG Version: 6.00 Build 0)  -->
<!DOCTYPE svg PUBLIC "-//W3C//DTD SVG 1.1//EN" "http://www.w3.org/Graphics/SVG/1.1/DTD/svg11.dtd">
<svg version="1.1" id="Layer_1" xmlns="http://www.w3.org/2000/svg" xmlns:xlink="http://www.w3.org/1999/xlink" x="0px" y="0px"
	 width="16px" height="16px" viewBox="0 0 16 16" enable-background="new 0 0 16 16" xml:space="preserve">
<path fill="none" d="M11.3,8.7L11.3,8.7c0.1,0.1,0.2,0.3,0.2,0.5c0,0.4-0.3,0.8-0.8,0.8c-0.2,0-0.4-0.1-0.6-0.2l0,0L8,7.4L5.8,9.8
	l0,0C5.7,9.9,5.5,10,5.3,10c-0.4,0-0.8-0.3-0.8-0.8c0-0.2,0.1-0.4,0.2-0.5l0,0l2.8-3C7.6,5.6,7.8,5.5,8,5.5c0.2,0,0.4,0.1,0.6,0.2
	L11.3,8.7z M16,8c0,4.4-3.6,8-8,8s-8-3.6-8-8c0-4.4,3.6-8,8-8S16,3.6,16,8z M1.5,8c0,3.6,2.9,6.5,6.5,6.5s6.5-2.9,6.5-6.5
	c0-3.6-2.9-6.5-6.5-6.5S1.5,4.4,1.5,8z"/>
</svg>
