<?xml version="1.0" encoding="utf-8"?>
<!-- Generator: Adobe Illustrator 17.1.0, SVG Export Plug-In . SVG Version: 6.00 Build 0)  -->
<!DOCTYPE svg PUBLIC "-//W3C//DTD SVG 1.1//EN" "http://www.w3.org/Graphics/SVG/1.1/DTD/svg11.dtd">
<svg version="1.1" id="Layer_1" xmlns="http://www.w3.org/2000/svg" xmlns:xlink="http://www.w3.org/1999/xlink" x="0px" y="0px"
	 width="30px" height="27px" viewBox="0 0 30 27" enable-background="new 0 0 30 27" xml:space="preserve">
<g>
	<path fill="none" d="M0.6,24.3h4.7c0.4,0,0.6-0.3,0.6-0.6V4.9c0-0.4-0.3-0.6-0.6-0.6H0.6C0.3,4.3,0,4.6,0,4.9v18.8
		C0,24,0.3,24.3,0.6,24.3z M1.3,5.6h3.4V23H1.3V5.6z M29.4,7.2h-4.7c-0.4,0-0.6,0.3-0.6,0.6v15.9c0,0.4,0.3,0.6,0.6,0.6h4.7
		c0.4,0,0.6-0.3,0.6-0.6V7.8C30,7.5,29.7,7.2,29.4,7.2z M28.7,23.1h-3.4V8.4h3.4V23.1z M16.7,24.3h4.7c0.4,0,0.6-0.3,0.6-0.6V0.6
		C22,0.3,21.7,0,21.3,0h-4.7C16.3,0,16,0.3,16,0.6v23.1C16,24,16.3,24.3,16.7,24.3z M17.3,1.3h3.4v21.8h-3.4V1.3z M8.7,24.3h4.7
		c0.4,0,0.6-0.3,0.6-0.6V10.6c0-0.4-0.3-0.6-0.6-0.6H8.7C8.3,10,8,10.3,8,10.6v13.1C8,24,8.3,24.3,8.7,24.3z M9.3,11.3h3.4v11.8H9.3
		V11.3z M29.4,25.7H0.6C0.3,25.7,0,26,0,26.4C0,26.7,0.3,27,0.6,27h28.7c0.4,0,0.6-0.3,0.6-0.6C30,26,29.7,25.7,29.4,25.7z"/>
</g>
</svg>
