<?xml version="1.0" encoding="utf-8"?>
<!-- Generator: Adobe Illustrator 17.1.0, SVG Export Plug-In . SVG Version: 6.00 Build 0)  -->
<!DOCTYPE svg PUBLIC "-//W3C//DTD SVG 1.1//EN" "http://www.w3.org/Graphics/SVG/1.1/DTD/svg11.dtd">
<svg version="1.1" id="Layer_1" xmlns="http://www.w3.org/2000/svg" xmlns:xlink="http://www.w3.org/1999/xlink" x="0px" y="0px"
	 width="19px" height="22px" viewBox="0 0 19 22" enable-background="new 0 0 19 22" xml:space="preserve">
<path fill="none" d="M14.1,0H5C4.6,0,4.2,0.4,4.2,0.8v3.4H0.8C0.4,4.2,0,4.6,0,5v16.2C0,21.6,0.4,22,0.8,22h13.3
	c0.4,0,0.8-0.4,0.8-0.8v-3.6h3.3c0.4,0,0.8-0.4,0.8-0.8V5c0-0.2-0.1-0.4-0.2-0.6l-4.1-4.2C14.5,0.1,14.3,0,14.1,0z M13.3,20.4H1.6
	V5.8h2.6v11c0,0.4,0.4,0.8,0.8,0.8h8.3L13.3,20.4L13.3,20.4z M5.8,16V1.6h6.9v4.5c0,0.4,0.4,0.8,0.8,0.8h4V16H5.8z M17.4,5.3h-3.2
	V2.1L17.4,5.3L17.4,5.3z"/>
</svg>
