<?xml version="1.0" encoding="utf-8"?>
<!-- Generator: Adobe Illustrator 17.1.0, SVG Export Plug-In . SVG Version: 6.00 Build 0)  -->
<!DOCTYPE svg PUBLIC "-//W3C//DTD SVG 1.1//EN" "http://www.w3.org/Graphics/SVG/1.1/DTD/svg11.dtd">
<svg version="1.1" id="Layer_1" xmlns="http://www.w3.org/2000/svg" xmlns:xlink="http://www.w3.org/1999/xlink" x="0px" y="0px"
	 width="24px" height="24px" viewBox="0 0 24 24" enable-background="new 0 0 24 24" xml:space="preserve">
<path fill="none" d="M0,23.1c0,0.2,0.1,0.4,0.2,0.6C0.4,23.9,0.6,24,0.8,24c0,0,0,0,0,0l5.8-0.2c0.2,0,0.4-0.1,0.6-0.2L23.8,7.1
	c0.3-0.3,0.3-0.8,0-1.2l-5.7-5.7C17.9,0.1,17.7,0,17.5,0c-0.2,0-0.4,0.1-0.6,0.2L0.4,16.8c-0.1,0.1-0.2,0.3-0.2,0.6L0,23.1
	 M6.3,22.2l-4.6,0.1l0.1-4.6l10-10l4.5,4.5L6.3,22.2z M17.5,11L13,6.5L17.5,2L22,6.5L17.5,11z"/>
</svg>
