<?xml version="1.0" encoding="utf-8"?>
<!-- Generator: Adobe Illustrator 19.2.0, SVG Export Plug-In . SVG Version: 6.00 Build 0)  -->
<svg version="1.0" id="Layer_1" xmlns="http://www.w3.org/2000/svg" xmlns:xlink="http://www.w3.org/1999/xlink" x="0px" y="0px"
	 viewBox="0 0 50 52" style="enable-background:new 0 0 50 52;" xml:space="preserve">
<style type="text/css">
	.st0{fill:#2775BA;}
</style>
<g>
	<g>
		<path class="st0" d="M26.5,25.3V1.5c0-0.8-0.6-1.5-1.4-1.5c-0.8,0-1.4,0.6-1.4,1.5v23.9c-3.4,0.7-5.9,3.7-5.9,7.3s2.5,6.6,5.9,7.3
			v10.6c0,0.8,0.6,1.5,1.4,1.5c0.8,0,1.4-0.6,1.4-1.5V39.9c3.4-0.7,5.9-3.7,5.9-7.3C32.4,29,29.9,26,26.5,25.3z M25.1,37.1
			c-2.5,0-4.4-2-4.4-4.5c0-2.5,2-4.5,4.4-4.5c2.5,0,4.4,2,4.4,4.5C29.5,35.1,27.5,37.1,25.1,37.1z M8.8,13.1V1.5
			C8.8,0.6,8.1,0,7.3,0S5.9,0.6,5.9,1.5v11.6C2.5,13.8,0,16.8,0,20.4C0,24,2.5,27,5.9,27.6v22.9c0,0.8,0.6,1.5,1.4,1.5
			s1.4-0.6,1.4-1.5V27.6c3.4-0.7,5.9-3.7,5.9-7.3S12.1,13.8,8.8,13.1z M7.3,24.9c-2.5,0-4.4-2-4.4-4.5c0-2.5,2-4.5,4.4-4.5
			c2.5,0,4.4,2,4.4,4.5C11.8,22.8,9.8,24.9,7.3,24.9z M44.1,13.1V1.5c0-0.8-0.6-1.5-1.4-1.5c-0.8,0-1.4,0.6-1.4,1.5v11.6
			c-3.4,0.7-5.9,3.7-5.9,7.3c0,3.6,2.5,6.6,5.9,7.3v22.9c0,0.8,0.6,1.5,1.4,1.5c0.8,0,1.4-0.6,1.4-1.5V27.6c3.4-0.7,5.9-3.7,5.9-7.3
			S47.5,13.8,44.1,13.1z M42.7,24.9c-2.5,0-4.4-2-4.4-4.5c0-2.5,2-4.5,4.4-4.5c2.5,0,4.4,2,4.4,4.5C47.1,22.8,45.1,24.9,42.7,24.9z"
			/>
	</g>
</g>
</svg>
