<?xml version="1.0" encoding="utf-8"?>
<!-- Generator: Adobe Illustrator 19.2.0, SVG Export Plug-In . SVG Version: 6.00 Build 0)  -->
<svg version="1.0" id="Layer_1" xmlns="http://www.w3.org/2000/svg" xmlns:xlink="http://www.w3.org/1999/xlink" x="0px" y="0px"
	 viewBox="0 0 30 30" style="enable-background:new 0 0 30 30;" xml:space="preserve">
<style type="text/css">
	.st0{fill:#1B1C1C;}
</style>
<g>
	<path class="st0" d="M4,0C1.8,0,0,1.8,0,4c0,2.2,1.8,4,4,4c2.2,0,4-1.8,4-4S6.2,0,4,0z M4,6C2.9,6,2,5.1,2,4c0-1.1,0.9-2,2-2
		s2,0.9,2,2C6,5.1,5.1,6,4,6z"/>
	<path class="st0" d="M4,11c-2.2,0-4,1.8-4,4c0,2.2,1.8,4,4,4c2.2,0,4-1.8,4-4S6.2,11,4,11z M4,17c-1.1,0-2-0.9-2-2c0-1.1,0.9-2,2-2
		s2,0.9,2,2C6,16.1,5.1,17,4,17z"/>
	<path class="st0" d="M4,22c-2.2,0-4,1.8-4,4c0,2.2,1.8,4,4,4c2.2,0,4-1.8,4-4S6.2,22,4,22z M4,28c-1.1,0-2-0.9-2-2c0-1.1,0.9-2,2-2
		s2,0.9,2,2C6,27.1,5.1,28,4,28z"/>
	<path class="st0" d="M13,5h16c0.6,0,1-0.4,1-1s-0.4-1-1-1H13c-0.6,0-1,0.4-1,1S12.4,5,13,5z"/>
	<path class="st0" d="M29,14H13c-0.6,0-1,0.4-1,1s0.4,1,1,1h16c0.6,0,1-0.4,1-1S29.6,14,29,14z"/>
	<path class="st0" d="M29,25H13c-0.6,0-1,0.4-1,1s0.4,1,1,1h16c0.6,0,1-0.4,1-1S29.6,25,29,25z"/>
</g>
</svg>
