<?xml version="1.0" encoding="utf-8"?>
<!-- Generator: Adobe Illustrator 19.2.0, SVG Export Plug-In . SVG Version: 6.00 Build 0)  -->
<svg version="1.0" id="Layer_2" xmlns="http://www.w3.org/2000/svg" xmlns:xlink="http://www.w3.org/1999/xlink" x="0px" y="0px"
	 viewBox="0 0 11 16" style="enable-background:new 0 0 11 16;" xml:space="preserve">
<style type="text/css">
	.st0{fill:#231F20;}
</style>
<g>
	<path class="st0" d="M5.5,2.9C4.1,2.9,3,4.1,3,5.5S4.1,8,5.5,8S8,6.8,8,5.5S6.9,2.9,5.5,2.9z M5.5,7C4.7,7,4,6.3,4,5.5
		s0.7-1.5,1.5-1.5S7,4.6,7,5.5S6.3,7,5.5,7z"/>
	<path class="st0" d="M5.5,0C2.5,0,0,2.4,0,5.4c0,0,0,0.4,0.1,1c0,0,0,0.1,0,0.1c0.3,1.6,1.3,4.9,5,9.2C5.2,15.9,5.4,16,5.5,16
		s0.3-0.1,0.4-0.2c3.7-4.3,4.7-7.6,5-9.2l0-0.2C11,5.8,11,5.5,11,5.5C11,2.4,8.5,0,5.5,0z M9.9,6.3l0,0.1c-0.3,1.4-1.2,4.4-4.4,8.3
		c-3.2-3.9-4.1-6.9-4.4-8.3l0-0.1C1,5.7,1,5.5,1,5.5C1,3,3,1,5.5,1S10,3,10,5.5C10,5.5,10,5.7,9.9,6.3z"/>
</g>
</svg>
