<svg xmlns="http://www.w3.org/2000/svg" width="47" height="45" viewBox="0 0 47 45"><path fill="#0074b8" d="M4.5 4.4C7.4 1.56 11.26 0 15.37 0c4.1 0 7.96 1.56 10.86 4.4a14.81 14.81 0 0 1 .7 20.53l3.48 3.4 1.97-1.93c.4-.4 1.05-.4 1.45 0L44.6 36.93a4.63 4.63 0 0 1 0 6.64l-.05.06a4.83 4.83 0 0 1-3.4 1.37 4.82 4.82 0 0 1-3.4-1.37L26.99 33.09a.98.98 0 0 1 0-1.41l1.98-1.94-3.47-3.4a15.46 15.46 0 0 1-10.12 3.72c-4.11 0-7.97-1.56-10.87-4.4-6-5.86-6-15.4 0-21.26zm34.7 37.81a2.77 2.77 0 0 0 3.9 0l.06-.05a2.66 2.66 0 0 0 0-3.82L33.1 28.51l-1.97 1.93-1.98 1.94zM5.94 24.25a13.4 13.4 0 0 0 9.43 3.82c3.56 0 6.9-1.36 9.42-3.82a12.85 12.85 0 0 0 0-18.44A13.4 13.4 0 0 0 15.37 2a13.4 13.4 0 0 0-9.43 3.82 12.85 12.85 0 0 0 0 18.44zm9.57-15.63a1 1 0 0 1 1.02 1v4.56h4.66a1 1 0 0 1 1.02 1c0 .55-.46 1-1.02 1h-4.66v4.55a1 1 0 0 1-1.02 1c-.28 0-.53-.11-.72-.3a.99.99 0 0 1-.3-.7v-4.56H9.83c-.28 0-.53-.1-.72-.29a.98.98 0 0 1-.3-.7 1 1 0 0 1 1.02-1h4.66V9.62a1 1 0 0 1 1.02-1z"/><path fill="#2775ba" d="M4.5 4.4C7.4 1.56 11.26 0 15.37 0c4.1 0 7.96 1.56 10.86 4.4a14.81 14.81 0 0 1 .7 20.53l3.48 3.4 1.97-1.93c.4-.4 1.05-.4 1.45 0L44.6 36.93a4.63 4.63 0 0 1 0 6.64l-.05.06a4.83 4.83 0 0 1-3.4 1.37 4.82 4.82 0 0 1-3.4-1.37L26.99 33.09a.98.98 0 0 1 0-1.41l1.98-1.94-3.47-3.4a15.46 15.46 0 0 1-10.12 3.72c-4.11 0-7.97-1.56-10.87-4.4-6-5.86-6-15.4 0-21.26zm34.7 37.81a2.77 2.77 0 0 0 3.9 0l.06-.05a2.66 2.66 0 0 0 0-3.82L33.1 28.51l-1.97 1.93-1.98 1.94zM5.94 24.25a13.4 13.4 0 0 0 9.43 3.82c3.56 0 6.9-1.36 9.42-3.82a12.85 12.85 0 0 0 0-18.44A13.4 13.4 0 0 0 15.37 2a13.4 13.4 0 0 0-9.43 3.82 12.85 12.85 0 0 0 0 18.44zm9.57-15.63a1 1 0 0 1 1.02 1v4.56h4.66a1 1 0 0 1 1.02 1c0 .55-.46 1-1.02 1h-4.66v4.55a1 1 0 0 1-1.02 1c-.28 0-.53-.11-.72-.3a.99.99 0 0 1-.3-.7v-4.56H9.83c-.28 0-.53-.1-.72-.29a.98.98 0 0 1-.3-.7 1 1 0 0 1 1.02-1h4.66V9.62a1 1 0 0 1 1.02-1z"/></svg>