<?xml version="1.0" encoding="utf-8"?>
<!-- Generator: Adobe Illustrator 17.1.0, SVG Export Plug-In . SVG Version: 6.00 Build 0)  -->
<!DOCTYPE svg PUBLIC "-//W3C//DTD SVG 1.1//EN" "http://www.w3.org/Graphics/SVG/1.1/DTD/svg11.dtd">
<svg version="1.1" id="Layer_1" xmlns="http://www.w3.org/2000/svg" xmlns:xlink="http://www.w3.org/1999/xlink" x="0px" y="0px"
	 width="30px" height="21px" viewBox="0 0 30 21" enable-background="new 0 0 30 21" xml:space="preserve">
<path fill="none" d="M30,2.003V1.886c0-0.432-0.197-0.941-0.55-1.294l-0.04-0.04c0,0-0.04,0-0.04-0.04
	c-0.08-0.08-0.157-0.116-0.237-0.196c-0.04,0-0.04-0.04-0.08-0.04c-0.08-0.04-0.197-0.08-0.277-0.116c-0.04,0-0.04-0.04-0.08-0.04
	c-0.117-0.04-0.237-0.08-0.354-0.08c-0.04,0-0.04,0-0.08,0C28.145,0.04,27.985,0,27.828,0H2.128C1.972,0,1.815,0,1.655,0.04
	c-0.04,0-0.08,0-0.117,0.04C1.421,0.12,1.301,0.12,1.225,0.16c-0.04,0-0.04,0.04-0.08,0.04c-0.08,0.04-0.197,0.08-0.277,0.116
	l-0.04,0.04C0.747,0.396,0.67,0.472,0.59,0.512c-0.04,0.04-0.08,0.08-0.117,0.117C0.197,0.941,0.04,1.298,0,1.69
	c0,0.04,0,0.04,0,0.08v17.464c0,0.04,0,0.04,0,0.08c0.08,0.549,0.354,1.021,0.747,1.294C1.101,20.844,1.535,21,2.045,21h25.863
	c0,0,0,0,0.04,0l0,0c0.117,0,0.277,0,0.394-0.04c0.04,0,0.04,0,0.08,0c0.117-0.04,0.237-0.04,0.313-0.08h0.04
	c0.868-0.313,1.221-1.061,1.221-1.766v-0.116v-0.04v-0.04V2.119c0-0.04,0-0.04,0-0.08C30,2.042,30,2.042,30,2.003z M27.482,1.454
	L15.082,13.5l-2.836-2.747l0,0L2.522,1.45h24.959V1.454z M1.462,18.761V2.435l9.17,8.79L1.462,18.761z M14.688,19.583H2.759
	l8.937-7.3l2.872,2.787c0.117,0.116,0.237,0.156,0.354,0.196h0.04c0.04,0,0.04,0,0.08,0l0,0c0.04,0,0.08,0,0.08,0h0.04
	c0.117-0.04,0.277-0.08,0.354-0.196l2.715-2.631l8.973,7.144H14.688L14.688,19.583z M28.542,18.798l-9.21-7.417l9.21-8.946V18.798z"
	/>
</svg>
