<?xml version="1.0" encoding="utf-8"?>
<!-- Generator: Adobe Illustrator 17.1.0, SVG Export Plug-In . SVG Version: 6.00 Build 0)  -->
<!DOCTYPE svg PUBLIC "-//W3C//DTD SVG 1.1//EN" "http://www.w3.org/Graphics/SVG/1.1/DTD/svg11.dtd">
<svg version="1.1" id="Layer_1" xmlns="http://www.w3.org/2000/svg" xmlns:xlink="http://www.w3.org/1999/xlink" x="0px" y="0px"
	 width="16px" height="17.6px" viewBox="0 0 16 17.6" enable-background="new 0 0 16 17.6" xml:space="preserve">
<g>
	<path fill="none" d="M4.436,2.404C5.311,1.612,6.704,1.1,7.985,1.1c1.293,0,2.697,0.521,3.576,1.328
		c0.105,0.096,0.237,0.144,0.369,0.144c0.148,0,0.297-0.06,0.405-0.179c0.204-0.224,0.188-0.572-0.035-0.777
		C11.23,0.634,9.536,0,7.985,0C6.448,0,4.767,0.622,3.702,1.586C3.478,1.79,3.46,2.138,3.662,2.363
		C3.865,2.589,4.212,2.607,4.436,2.404z M5.11,3.508C4.885,3.711,4.867,4.059,5.07,4.285c0.203,0.226,0.549,0.244,0.774,0.04
		C6.321,3.894,7.224,3.58,7.991,3.58c0.773,0,1.683,0.32,2.163,0.76c0.105,0.096,0.237,0.144,0.37,0.144
		c0.148,0,0.297-0.06,0.405-0.179c0.204-0.224,0.188-0.573-0.035-0.777C10.21,2.9,9.043,2.479,7.991,2.479
		C7.123,2.479,5.896,2.797,5.11,3.508z M14.721,5.883H1.279C0.574,5.883,0,6.459,0,7.167v9.149C0,17.024,0.574,17.6,1.279,17.6
		h13.443c0.705,0,1.279-0.576,1.279-1.284V7.167C16,6.459,15.426,5.883,14.721,5.883z M1.279,6.984h13.443
		c0.023,0,0.044,0.005,0.064,0.013l-6.539,5.034c-0.122,0.094-0.371,0.094-0.493,0L1.215,6.996C1.235,6.989,1.256,6.984,1.279,6.984
		z M14.904,16.316c0,0.099-0.083,0.183-0.183,0.183H1.279c-0.099,0-0.183-0.084-0.183-0.183V8.292l5.991,4.612
		C7.343,13.101,7.671,13.2,8,13.2c0.329,0,0.657-0.099,0.913-0.296l5.991-4.612V16.316z"/>
</g>
</svg>
