<svg xmlns="http://www.w3.org/2000/svg" width="22" height="22" viewBox="0 0 22 22"><path fill="#0074b8" d="M21.07 20.13h-1.63V4.43a.95.95 0 0 0-.94-.93.94.94 0 0 0-.93.93v15.7h-3.13V8.31a.94.94 0 0 0-1.87 0v11.82H9.39V12.9a.94.94 0 0 0-.93-.93.94.94 0 0 0-.93.93v7.24H4.4v-5.65a.95.95 0 0 0-.94-.94.94.94 0 0 0-.93.94v5.65H.93a.94.94 0 0 0-.93.94c0 .5.42.93.93.93h20.09c.51 0 .98-.42.98-.93a.93.93 0 0 0-.93-.94zM2.34 9.63c.27-.05 6.58-1.52 11.44-6.4v1.81c0 .51.42.94.94.94.51 0 .93-.43.93-.98V.93a.94.94 0 0 0-.93-.93h-4.11a.94.94 0 0 0-.94.93c0 .51.42.94.94.94h1.92A24.04 24.04 0 0 1 1.92 7.89c-.52.1-.8.56-.71 1.08.15.6.78.77 1.13.65z"/></svg>