<?xml version="1.0" encoding="utf-8"?>
<!-- Generator: Adobe Illustrator 17.1.0, SVG Export Plug-In . SVG Version: 6.00 Build 0)  -->
<!DOCTYPE svg PUBLIC "-//W3C//DTD SVG 1.1//EN" "http://www.w3.org/Graphics/SVG/1.1/DTD/svg11.dtd">
<svg version="1.1" id="Layer_1" xmlns="http://www.w3.org/2000/svg" xmlns:xlink="http://www.w3.org/1999/xlink" x="0px" y="0px"
	 width="38px" height="38px" viewBox="0 0 38 38" enable-background="new 0 0 38 38" xml:space="preserve">
<g>
	<path fill="none" d="M38,17.4c0-0.1,0-0.1,0-0.2c0,0,0,0,0-0.1c0-0.1-0.1-0.2-0.2-0.2c0,0,0,0,0,0l-4.5-4.5V7.9c0,0,0,0,0,0
		c0-0.1,0-0.1,0-0.2c0,0,0,0,0-0.1c0-0.1-0.1-0.2-0.2-0.2l-7.1-7.1c-0.1-0.1-0.1-0.1-0.2-0.2c0,0,0,0-0.1,0c-0.1,0-0.1,0-0.2,0
		c0,0,0,0,0,0H5.5C5.1,0,4.8,0.4,4.8,0.8v11.5l-4.5,4.5c0,0,0,0,0,0c-0.1,0.1-0.1,0.1-0.2,0.2c0,0,0,0,0,0.1c0,0.1,0,0.1,0,0.2
		c0,0,0,0,0,0v15c0,0.4,0.4,0.8,0.8,0.8h4v4c0,0.4,0.4,0.8,0.8,0.8h26.9c0.4,0,0.8-0.4,0.8-0.8v-4h4c0.4,0,0.8-0.4,0.8-0.8L38,17.4
		C38,17.4,38,17.4,38,17.4z M33.3,14.6l2,2h-2V14.6z M26.1,2.7l4.4,4.4h-4.4V2.7z M6.3,1.6h18.2v6.3c0,0.4,0.4,0.8,0.8,0.8h6.3v7.9
		H6.3V1.6z M4.8,14.6v2h-2L4.8,14.6z M31.7,36.4H6.3v-3.2h25.3V36.4z M36.4,31.7H1.6V18.2h34.8V31.7z M11.6,26.3h1.1
		c0.3,0,0.7-0.1,1-0.2c0.3-0.1,0.6-0.3,0.8-0.5c0.2-0.2,0.4-0.5,0.6-0.9c0.1-0.4,0.2-0.8,0.2-1.3c0-0.5-0.1-1-0.2-1.3
		c-0.2-0.4-0.4-0.6-0.6-0.9c-0.3-0.2-0.5-0.4-0.9-0.5c-0.3-0.1-0.6-0.1-0.9-0.1H10v9.5h1.6V26.3z M11.6,21.9h0.9
		c0.4,0,0.7,0.1,0.9,0.3c0.2,0.2,0.4,0.6,0.4,1.1c0,0.5-0.1,0.9-0.4,1.2c-0.2,0.3-0.6,0.4-0.9,0.4h-0.9V21.9z M26,26h2.4v-1.4h-2.4
		V22h2.7v-1.5h-4.3v9.5H26V26z M21.8,28.8c0.6-0.8,0.9-2,0.9-3.5c0-1.5-0.3-2.7-0.9-3.5c-0.6-0.8-1.6-1.3-2.8-1.3h-2.4v9.5H19
		C20.3,30.1,21.2,29.7,21.8,28.8z M18.3,22h0.8c0.3,0,0.6,0.1,0.8,0.2c0.3,0.1,0.5,0.3,0.7,0.6c0.2,0.3,0.3,0.6,0.4,1
		c0.1,0.4,0.2,0.9,0.2,1.5c0,0.6-0.1,1-0.2,1.5c-0.1,0.4-0.2,0.8-0.4,1c-0.2,0.3-0.4,0.5-0.7,0.6c-0.3,0.1-0.5,0.2-0.8,0.2h-0.8V22z
		"/>
</g>
</svg>
