<?xml version="1.0" encoding="utf-8"?>
<!-- Generator: Adobe Illustrator 17.1.0, SVG Export Plug-In . SVG Version: 6.00 Build 0)  -->
<!DOCTYPE svg PUBLIC "-//W3C//DTD SVG 1.1//EN" "http://www.w3.org/Graphics/SVG/1.1/DTD/svg11.dtd">
<svg version="1.1" id="Layer_1" xmlns="http://www.w3.org/2000/svg" xmlns:xlink="http://www.w3.org/1999/xlink" x="0px" y="0px"
	 width="16px" height="16px" viewBox="0 0 16 16" enable-background="new 0 0 16 16" xml:space="preserve">
<g>
	<path fill="none" d="M15.539,12.012l-2.312-2.324c-0.311-0.31-0.726-0.481-1.171-0.481c-0.463,0-0.899,0.183-1.229,0.515
		l-0.9,0.904c-0.699-0.391-1.629-0.928-2.594-1.897c-0.964-0.969-1.499-1.9-1.89-2.606l0.901-0.904
		c0.67-0.674,0.683-1.756,0.031-2.412L4.062,0.484C3.752,0.172,3.336,0,2.891,0c-0.452,0-0.88,0.175-1.208,0.493
		C1.484,0.654,0.488,1.538,0.116,3.36C-0.404,5.91,0.791,8.365,4.24,11.83C8.093,15.699,11.382,16,12.298,16
		c0.191,0,0.306-0.012,0.337-0.016c1.797-0.211,2.44-1.013,2.91-1.598C16.153,13.628,16.151,12.63,15.539,12.012z M14.772,13.76
		c-0.442,0.55-0.858,1.07-2.253,1.234c-0.001,0-0.077,0.009-0.221,0.009c-0.82,0-3.773-0.28-7.356-3.878
		C1.762,7.929,0.645,5.737,1.089,3.56C1.413,1.97,2.273,1.295,2.306,1.269l0.03-0.022l0.026-0.026
		c0.143-0.144,0.331-0.223,0.529-0.223c0.18,0,0.346,0.068,0.469,0.191l2.313,2.323c0.266,0.267,0.252,0.716-0.031,1.001
		L4.622,5.536L4.605,5.553C4.34,5.847,4.371,6.244,4.517,6.503c0.422,0.765,1,1.813,2.113,2.931c1.109,1.114,2.15,1.694,2.91,2.117
		c0.076,0.043,0.233,0.115,0.43,0.115c0.232,0,0.445-0.099,0.603-0.279l0.956-0.96c0.143-0.143,0.33-0.222,0.527-0.222
		c0.18,0,0.347,0.068,0.469,0.19l2.311,2.322C15.13,13.013,15.009,13.465,14.772,13.76z M9.693,2.444
		c0.853,0.099,1.857,0.618,2.559,1.322c0.708,0.711,1.226,1.73,1.319,2.596c0.028,0.255,0.243,0.445,0.493,0.445
		c0.018,0,0.036-0.001,0.054-0.003c0.273-0.03,0.47-0.276,0.44-0.55c-0.118-1.095-0.733-2.319-1.604-3.194
		c-0.863-0.867-2.069-1.483-3.147-1.608c-0.272-0.032-0.518,0.165-0.55,0.438C9.225,2.165,9.421,2.412,9.693,2.444z M9.229,4.532
		c0.461,0.053,1.1,0.397,1.518,0.817c0.422,0.424,0.765,1.071,0.815,1.54c0.028,0.255,0.243,0.445,0.493,0.445
		c0.018,0,0.036-0.001,0.054-0.003c0.273-0.03,0.47-0.276,0.44-0.549c-0.086-0.8-0.615-1.65-1.1-2.137
		c-0.481-0.483-1.319-1.012-2.107-1.103C9.07,3.51,8.824,3.706,8.793,3.98C8.762,4.254,8.957,4.501,9.229,4.532z"/>
</g>
</svg>
