<?xml version="1.0" encoding="utf-8"?>
<!-- Generator: Adobe Illustrator 19.2.0, SVG Export Plug-In . SVG Version: 6.00 Build 0)  -->
<svg version="1.0" id="Layer_1" xmlns="http://www.w3.org/2000/svg" xmlns:xlink="http://www.w3.org/1999/xlink" x="0px" y="0px"
	 viewBox="0 0 26 26" style="enable-background:new 0 0 26 26;" xml:space="preserve">
<style type="text/css">
	.st0{fill:#0074B8;}
</style>
<path class="st0" d="M25.2,18.4l-2.2-2.1c-1.1-1.1-2.9-1.1-4,0l-0.9,0.9c-0.3,0.3-0.8,0.3-1.1,0c-1.4-1.1-3.2-2.9-4.3-4
	c-1.1-0.9-2.9-2.9-4-4.3c-0.2-0.3-0.3-0.8,0-1.1l0.9-0.9c0.5-0.5,0.8-1.2,0.8-2c0-0.8-0.3-1.5-0.8-2L7.5,0.8c-1.1-1.1-2.9-1.1-4,0
	C-0.1,4.5-1,8.4,1.3,11.5c2.3,3.2,4.3,5.3,6.2,7.2c1.9,1.8,4,3.8,7.3,6.1c1.1,0.8,2.5,1.2,3.9,1.2c2.3,0,4.6-1.2,6.6-3.7
	c0.5-0.5,0.8-1.2,0.8-2C26,19.6,25.7,18.8,25.2,18.4L25.2,18.4z M24.5,21.6c-3.1,3.1-6.3,3.7-8.8,2c-3.2-2.3-5.3-4.1-7.1-6
	c-1.9-1.8-3.7-3.8-6-7c-1.7-2.4-1.1-5.7,2-8.7c0.3-0.2,0.6-0.3,0.9-0.3c0.3,0,0.6,0.2,1.1,0.5l2.2,2.1C8.8,4.5,9,4.8,9,5.1
	C9,5.4,9,5.7,8.7,6L7.8,6.9C7,7.7,7,8.9,7.8,10c1.1,1.4,3.1,3.4,4.2,4.4c1.1,1.1,2.9,3.1,4.5,4.1c1.1,0.8,2.3,0.8,3.1,0l0.9-0.9
	c0.5-0.5,1.4-0.5,1.9,0l2.2,2.1c0.2,0.3,0.3,0.6,0.3,0.9C24.8,21,24.8,21.3,24.5,21.6L24.5,21.6z"/>
</svg>
