<?xml version="1.0" encoding="utf-8"?>
<!-- Generator: Adobe Illustrator 17.1.0, SVG Export Plug-In . SVG Version: 6.00 Build 0)  -->
<!DOCTYPE svg PUBLIC "-//W3C//DTD SVG 1.1//EN" "http://www.w3.org/Graphics/SVG/1.1/DTD/svg11.dtd">
<svg version="1.1" id="Layer_1" xmlns="http://www.w3.org/2000/svg" xmlns:xlink="http://www.w3.org/1999/xlink" x="0px" y="0px"
	 width="24.002px" height="24px" viewBox="0 0 24.002 24" enable-background="new 0 0 24.002 24" xml:space="preserve">
<g>
	<defs>
		<rect id="SVGID_1_" y="0" width="24.002" height="24"/>
	</defs>
	<clipPath id="SVGID_2_">
		<use xlink:href="#SVGID_1_"  overflow="visible"/>
	</clipPath>
	<path clip-path="url(#SVGID_2_)" fill="#0074B8" d="M18.98,14.867c-0.492-0.512-1.086-0.785-1.715-0.785
		c-0.624,0-1.223,0.269-1.735,0.78l-1.603,1.596c-0.132-0.071-0.264-0.137-0.391-0.203c-0.182-0.091-0.355-0.177-0.502-0.268
		c-1.502-0.953-2.866-2.194-4.175-3.8c-0.634-0.8-1.061-1.474-1.37-2.158C7.905,9.65,8.291,9.255,8.666,8.875
		C8.808,8.733,8.95,8.586,9.092,8.444c1.065-1.064,1.065-2.441,0-3.505L7.707,3.556C7.55,3.399,7.388,3.237,7.235,3.075
		C6.931,2.761,6.611,2.437,6.282,2.133c-0.493-0.487-1.081-0.745-1.7-0.745S3.365,1.646,2.857,2.133
		c-0.005,0.005-0.005,0.005-0.01,0.01L1.122,3.88c-0.649,0.649-1.02,1.439-1.101,2.356c-0.122,1.479,0.315,2.856,0.65,3.758
		c0.821,2.214,2.049,4.265,3.881,6.464c2.222,2.649,4.895,4.741,7.949,6.215c1.167,0.552,2.725,1.205,4.465,1.317
		c0.106,0.005,0.218,0.01,0.319,0.01c1.172,0,2.156-0.421,2.928-1.256c0.005-0.01,0.015-0.015,0.02-0.026
		c0.264-0.319,0.568-0.608,0.888-0.916c0.218-0.208,0.441-0.426,0.659-0.654c0.502-0.521,0.766-1.13,0.766-1.753
		c0-0.628-0.269-1.23-0.781-1.737L18.98,14.867z M20.796,20.201c-0.198,0.213-0.401,0.405-0.619,0.618
		c-0.33,0.314-0.664,0.643-0.979,1.013c-0.512,0.547-1.116,0.805-1.908,0.805c-0.076,0-0.157,0-0.233-0.005
		c-1.507-0.096-2.907-0.684-3.957-1.185c-2.871-1.388-5.393-3.358-7.488-5.855c-1.73-2.082-2.887-4.007-3.653-6.074
		C1.487,8.257,1.315,7.274,1.391,6.347c0.051-0.593,0.279-1.084,0.7-1.504l1.73-1.728C4.07,2.882,4.333,2.756,4.592,2.756
		c0.32,0,0.579,0.192,0.741,0.354c0.005,0.005,0.01,0.011,0.015,0.016c0.31,0.288,0.604,0.587,0.913,0.906
		c0.157,0.162,0.32,0.324,0.482,0.492l1.385,1.382c0.538,0.537,0.538,1.034,0,1.571C7.981,7.624,7.839,7.771,7.692,7.912
		C7.266,8.348,6.86,8.753,6.418,9.148c-0.01,0.01-0.02,0.016-0.025,0.026c-0.436,0.435-0.355,0.861-0.264,1.15
		c0.005,0.015,0.01,0.03,0.016,0.045c0.36,0.871,0.867,1.692,1.638,2.67l0.005,0.005c1.4,1.722,2.877,3.064,4.505,4.092
		c0.208,0.132,0.421,0.238,0.624,0.34c0.183,0.091,0.355,0.177,0.503,0.268c0.02,0.01,0.04,0.025,0.06,0.036
		c0.173,0.086,0.335,0.126,0.503,0.126c0.421,0,0.685-0.263,0.771-0.349l1.735-1.733c0.172-0.172,0.446-0.379,0.766-0.379
		c0.314,0,0.573,0.197,0.73,0.369c0.005,0.005,0.005,0.005,0.011,0.01l2.795,2.791C21.313,19.132,21.313,19.664,20.796,20.201
		 M16.474,7.522c0.964,0.963,1.588,2.168,1.816,3.495c0.056,0.335,0.345,0.568,0.675,0.568c0.04,0,0.076-0.006,0.116-0.01
		c0.376-0.061,0.624-0.416,0.563-0.791c-0.274-1.605-1.035-3.069-2.196-4.229c-1.162-1.16-2.628-1.92-4.236-2.193
		c-0.376-0.061-0.726,0.187-0.792,0.557c-0.066,0.369,0.178,0.729,0.553,0.79C14.302,5.932,15.51,6.56,16.474,7.522 M20.375,3.622
		c-1.918-1.915-4.328-3.161-6.976-3.612c-0.37-0.065-0.72,0.188-0.786,0.557c-0.061,0.376,0.188,0.725,0.563,0.791
		c2.364,0.4,4.52,1.519,6.235,3.226c1.715,1.712,2.831,3.865,3.232,6.226c0.055,0.334,0.345,0.567,0.674,0.567
		c0.041,0,0.076-0.005,0.117-0.01c0.371-0.056,0.624-0.41,0.558-0.78C23.541,7.943,22.293,5.537,20.375,3.622"/>
</g>
</svg>
