<?xml version="1.0" encoding="utf-8"?>
<!-- Generator: Adobe Illustrator 17.1.0, SVG Export Plug-In . SVG Version: 6.00 Build 0)  -->
<!DOCTYPE svg PUBLIC "-//W3C//DTD SVG 1.1//EN" "http://www.w3.org/Graphics/SVG/1.1/DTD/svg11.dtd">
<svg version="1.1" id="Layer_1" xmlns="http://www.w3.org/2000/svg" xmlns:xlink="http://www.w3.org/1999/xlink" x="0px" y="0px"
	 width="16px" height="17.6px" viewBox="0 0 16 17.6" enable-background="new 0 0 16 17.6" xml:space="preserve">
<g>
	<path fill="none" d="M14.584,2.678h-0.312V0.796c0-0.439-0.35-0.796-0.78-0.796H7.789c-0.43,0-0.78,0.357-0.78,0.796v1.883H6.835
		c-0.032-0.28-0.15-0.54-0.345-0.747C6.248,1.676,5.922,1.535,5.572,1.535H1.274c-0.351,0-0.677,0.141-0.918,0.397
		c-0.242,0.256-0.367,0.593-0.354,0.95l0.216,5.858c0.015,0.399,0.015,1.073,0.001,1.472l-0.217,6.042
		c-0.013,0.357,0.113,0.695,0.355,0.95C0.598,17.459,0.924,17.6,1.274,17.6h4.298c0.35,0,0.676-0.141,0.918-0.396
		c0.141-0.149,0.242-0.327,0.299-0.52h7.539c0.922,0,1.672-0.765,1.672-1.705V4.383C16,3.443,15.365,2.678,14.584,2.678z
		 M5.687,16.415c-0.021,0.022-0.058,0.049-0.116,0.049H1.274c-0.058,0-0.095-0.027-0.115-0.049c-0.021-0.022-0.046-0.061-0.043-0.12
		l0.217-6.042c0.015-0.429,0.015-1.127-0.001-1.557L1.116,2.839C1.113,2.78,1.138,2.742,1.159,2.72
		c0.021-0.022,0.058-0.048,0.115-0.048h4.298c0.057,0,0.094,0.026,0.115,0.048C5.708,2.742,5.732,2.78,5.73,2.839L5.515,8.697
		c-0.016,0.429-0.016,1.128-0.001,1.556l0.217,6.042C5.733,16.354,5.708,16.393,5.687,16.415z M8.124,1.136h5.034v4.074H8.124V1.136
		z M14.885,14.979c0,0.313-0.25,0.568-0.557,0.568H6.819l-0.192-5.336C6.613,9.813,6.614,9.139,6.628,8.739l0.181-4.924h0.2v1.737
		c0,0.439,0.35,0.796,0.78,0.796h5.703c0.43,0,0.78-0.357,0.78-0.796V3.815h0.312c0.12,0,0.301,0.227,0.301,0.568V14.979z
		 M8.491,7.99H7.864c-0.308,0-0.557,0.254-0.557,0.568s0.25,0.568,0.557,0.568h0.627c0.308,0,0.557-0.255,0.557-0.568
		S8.799,7.99,8.491,7.99z M10.917,7.99H10.29c-0.308,0-0.557,0.254-0.557,0.568s0.25,0.568,0.557,0.568h0.627
		c0.308,0,0.557-0.255,0.557-0.568S11.225,7.99,10.917,7.99z M13.344,7.99h-0.627c-0.308,0-0.557,0.254-0.557,0.568
		s0.25,0.568,0.557,0.568h0.627c0.308,0,0.557-0.255,0.557-0.568S13.651,7.99,13.344,7.99z M8.491,10.165H7.864
		c-0.308,0-0.557,0.254-0.557,0.568s0.25,0.568,0.557,0.568h0.627c0.308,0,0.557-0.254,0.557-0.568S8.799,10.165,8.491,10.165z
		 M10.917,10.165H10.29c-0.308,0-0.557,0.254-0.557,0.568s0.25,0.568,0.557,0.568h0.627c0.308,0,0.557-0.254,0.557-0.568
		S11.225,10.165,10.917,10.165z M13.344,10.165h-0.627c-0.308,0-0.557,0.254-0.557,0.568s0.25,0.568,0.557,0.568h0.627
		c0.308,0,0.557-0.254,0.557-0.568S13.651,10.165,13.344,10.165z M8.491,12.34H7.864c-0.308,0-0.557,0.255-0.557,0.568
		c0,0.314,0.25,0.568,0.557,0.568h0.627c0.308,0,0.557-0.254,0.557-0.568C9.048,12.595,8.799,12.34,8.491,12.34z M10.917,12.34
		H10.29c-0.308,0-0.557,0.255-0.557,0.568c0,0.314,0.25,0.568,0.557,0.568h0.627c0.308,0,0.557-0.254,0.557-0.568
		C11.474,12.595,11.225,12.34,10.917,12.34z M13.344,12.34h-0.627c-0.308,0-0.557,0.255-0.557,0.568c0,0.314,0.25,0.568,0.557,0.568
		h0.627c0.308,0,0.557-0.254,0.557-0.568C13.901,12.595,13.651,12.34,13.344,12.34z M11.954,1.724H9.328
		c-0.205,0-0.372,0.17-0.372,0.379c0,0.209,0.166,0.379,0.372,0.379h2.626c0.205,0,0.372-0.169,0.372-0.379
		C12.325,1.894,12.159,1.724,11.954,1.724z M10.879,3.359H9.328c-0.205,0-0.372,0.17-0.372,0.379c0,0.209,0.166,0.379,0.372,0.379
		h1.551c0.205,0,0.371-0.17,0.371-0.379C11.25,3.529,11.084,3.359,10.879,3.359z"/>
</g>
</svg>
