<?xml version="1.0" encoding="utf-8"?>
<!-- Generator: Adobe Illustrator 19.2.0, SVG Export Plug-In . SVG Version: 6.00 Build 0)  -->
<svg version="1.0" id="Layer_2" xmlns="http://www.w3.org/2000/svg" xmlns:xlink="http://www.w3.org/1999/xlink" x="0px" y="0px"
	 viewBox="0 0 16 14" style="enable-background:new 0 0 16 14;" xml:space="preserve">
<style type="text/css">
	.st0{fill:#231F20;}
</style>
<g>
	<path class="st0" d="M15.5,0h-15C0.2,0,0,0.2,0,0.5v13C0,13.8,0.2,14,0.5,14h15c0.3,0,0.5-0.2,0.5-0.5v-13C16,0.2,15.8,0,15.5,0z
		 M15,11.1H3.7l1.9-2.8l1.5,1.3c0.1,0.1,0.3,0.1,0.4,0.1c0.1,0,0.3-0.1,0.4-0.2l3.8-5.4L15,7.9V11.1z M15,1v5.4L12.1,3
		c-0.1-0.1-0.2-0.2-0.4-0.2c-0.2,0-0.3,0.1-0.4,0.2L7.4,8.5L5.9,7.2C5.8,7.1,5.7,7,5.5,7.1c-0.1,0-0.3,0.1-0.4,0.2l-2.6,3.8H1V1H15z
		 M1,13v-0.9h14V13H1z"/>
	<path class="st0" d="M4.1,6.4c1.3,0,2.3-1,2.3-2.3s-1-2.3-2.3-2.3c-1.3,0-2.3,1-2.3,2.3S2.8,6.4,4.1,6.4z M4.1,2.8
		c0.7,0,1.3,0.6,1.3,1.3S4.8,5.4,4.1,5.4c-0.7,0-1.3-0.6-1.3-1.3S3.4,2.8,4.1,2.8z"/>
</g>
</svg>
