<?xml version="1.0" encoding="utf-8"?>
<!-- Generator: Adobe Illustrator 17.1.0, SVG Export Plug-In . SVG Version: 6.00 Build 0)  -->
<!DOCTYPE svg PUBLIC "-//W3C//DTD SVG 1.1//EN" "http://www.w3.org/Graphics/SVG/1.1/DTD/svg11.dtd">
<svg version="1.1" id="Layer_1" xmlns="http://www.w3.org/2000/svg" xmlns:xlink="http://www.w3.org/1999/xlink" x="0px" y="0px"
	 width="24px" height="24px" viewBox="0 0 24 24" enable-background="new 0 0 24 24" xml:space="preserve">
<g>
	<path fill="none" d="M22.548,9.965h-4.755c-0.241,0-0.436,0.202-0.436,0.453c0,0.25,0.195,0.453,0.436,0.453h3.971l1.265,12.224
		H0.99l1.484-12.224h3.978c0.241,0,0.436-0.202,0.436-0.453c0-0.251-0.195-0.453-0.436-0.453H1.704L0,24h24L22.548,9.965z
		 M11.627,17.189c-0.064,0.039-0.133,0.074-0.194,0.115c-0.096,0.064-0.19,0.132-0.282,0.201c-0.194,0.148-0.236,0.432-0.094,0.633
		c0.086,0.121,0.218,0.185,0.353,0.185c0.089,0,0.18-0.028,0.258-0.087c0.078-0.059,0.157-0.116,0.239-0.172
		c0.14-0.094,0.289-0.182,0.442-0.263c0.204-0.107,0.287-0.358,0.202-0.575c0.003-0.004,0.008-0.006,0.011-0.01
		c0.789-0.867,3.448-4.118,4.549-9.534c0.223-1.098,0.274-2.152,0.149-3.133C16.885,1.574,15.103,0,12.107,0
		C9.112,0,7.33,1.574,6.954,4.55C6.83,5.531,6.88,6.585,7.104,7.683C8.194,13.046,10.811,16.284,11.627,17.189z M7.819,4.669
		c0.32-2.532,1.723-3.763,4.289-3.763c2.566,0,3.969,1.231,4.288,3.763c0.111,0.878,0.065,1.83-0.138,2.828
		c-0.99,4.868-3.35,7.957-4.15,8.895c-0.802-0.938-3.161-4.029-4.151-8.895C7.754,6.499,7.708,5.547,7.819,4.669z M12.108,8.567
		c1.767,0,3.204-1.492,3.204-3.326c0-1.834-1.438-3.326-3.204-3.326c-1.767,0-3.205,1.492-3.205,3.326
		C8.903,7.075,10.341,8.567,12.108,8.567z M12.108,2.821c1.286,0,2.332,1.086,2.332,2.42c0,1.335-1.046,2.42-2.332,2.42
		c-1.286,0-2.332-1.086-2.332-2.42C9.776,3.907,10.822,2.821,12.108,2.821z M13.71,16.375c-0.236,0.052-0.386,0.292-0.335,0.537
		c0.044,0.213,0.225,0.358,0.426,0.358c0.03,0,0.061-0.003,0.092-0.01c0.256-0.056,0.533-0.104,0.823-0.142
		c0.239-0.03,0.409-0.257,0.379-0.505c-0.03-0.248-0.246-0.428-0.487-0.393C14.292,16.261,13.99,16.313,13.71,16.375z
		 M15.966,16.558c0.01,0.243,0.203,0.433,0.435,0.433c0.007,0,0.013,0,0.019,0l0.873-0.038c0.24-0.011,0.427-0.223,0.416-0.473
		c-0.011-0.25-0.235-0.445-0.455-0.432l-0.871,0.037C16.142,16.097,15.955,16.308,15.966,16.558z M9.786,18.641
		c-0.224,0.176-0.456,0.345-0.689,0.501c-0.202,0.136-0.26,0.417-0.128,0.627c0.083,0.134,0.224,0.206,0.366,0.206
		c0.082,0,0.164-0.023,0.237-0.073c0.25-0.168,0.499-0.349,0.739-0.538c0.192-0.151,0.23-0.435,0.085-0.634
		C10.252,18.532,9.979,18.491,9.786,18.641z M19.508,15.656c-0.147,0.107-0.339,0.185-0.587,0.238
		c-0.236,0.05-0.388,0.29-0.339,0.535c0.043,0.214,0.224,0.361,0.427,0.361c0.029,0,0.059-0.003,0.089-0.009
		c0.367-0.079,0.666-0.205,0.914-0.386l0.058-0.044c0.192-0.151,0.23-0.435,0.085-0.634c-0.146-0.199-0.419-0.238-0.611-0.088
		L19.508,15.656z M3.865,19.196c0.063-0.241-0.075-0.49-0.307-0.555c-0.231-0.068-0.472,0.077-0.535,0.319
		c-0.055,0.21-0.088,0.425-0.098,0.636c-0.002,0.052-0.003,0.105-0.003,0.16c0,0.089,0.004,0.177,0.013,0.266
		c0.023,0.233,0.212,0.406,0.434,0.406c0.014,0,0.029-0.001,0.045-0.002c0.24-0.026,0.414-0.248,0.39-0.497
		c-0.006-0.059-0.008-0.119-0.009-0.176c0-0.038,0.001-0.075,0.003-0.112C3.804,19.494,3.827,19.344,3.865,19.196z M19.499,12.137
		c-0.346-0.048-0.7-0.018-1.041,0.082c-0.232,0.067-0.367,0.318-0.301,0.558c0.054,0.2,0.229,0.33,0.419,0.33
		c0.04,0,0.079-0.005,0.119-0.017c0.227-0.066,0.46-0.087,0.687-0.055c0.245,0.032,0.459-0.141,0.491-0.388
		C19.905,12.398,19.737,12.171,19.499,12.137z M20.367,14.38c-0.071,0.239,0.058,0.492,0.288,0.566
		c0.043,0.014,0.086,0.02,0.129,0.02c0.187,0,0.359-0.124,0.417-0.319c0.043-0.144,0.07-0.29,0.08-0.436
		c0.002-0.037,0.003-0.076,0.003-0.113c0-0.212-0.037-0.424-0.111-0.63c-0.084-0.235-0.336-0.354-0.561-0.267
		c-0.226,0.087-0.341,0.348-0.257,0.582c0.038,0.105,0.057,0.211,0.057,0.315L20.41,14.15C20.404,14.225,20.39,14.301,20.367,14.38z
		 M7.626,19.994c-0.256,0.124-0.516,0.24-0.774,0.344c-0.225,0.09-0.336,0.352-0.249,0.586c0.067,0.179,0.232,0.29,0.407,0.29
		c0.052,0,0.106-0.009,0.157-0.03c0.277-0.111,0.556-0.235,0.83-0.368c0.218-0.106,0.312-0.376,0.209-0.602
		C8.104,19.985,7.845,19.887,7.626,19.994z M4.45,18.109c0.07,0,0.142-0.018,0.208-0.055c0.126-0.071,0.26-0.116,0.397-0.131
		c0.059-0.007,0.119-0.007,0.177,0.001c0.245,0.033,0.458-0.142,0.489-0.389c0.031-0.248-0.136-0.475-0.375-0.508
		c-0.13-0.018-0.262-0.019-0.389-0.004c-0.25,0.028-0.492,0.108-0.718,0.236c-0.212,0.12-0.29,0.394-0.174,0.614
		C4.146,18.024,4.296,18.109,4.45,18.109z M4.359,21.659c0.094,0.025,0.19,0.044,0.285,0.056c0.112,0.014,0.223,0.021,0.335,0.021
		c0.137,0,0.274-0.01,0.41-0.028c0.239-0.031,0.409-0.258,0.378-0.506c-0.031-0.248-0.247-0.423-0.487-0.393
		c-0.176,0.023-0.354,0.029-0.53,0.007c-0.058-0.008-0.115-0.019-0.172-0.034c-0.234-0.065-0.471,0.082-0.532,0.324
		C3.987,21.349,4.126,21.596,4.359,21.659z"/>
</g>
</svg>
