<?xml version="1.0" encoding="utf-8"?>
<!-- Generator: Adobe Illustrator 17.1.0, SVG Export Plug-In . SVG Version: 6.00 Build 0)  -->
<!DOCTYPE svg PUBLIC "-//W3C//DTD SVG 1.1//EN" "http://www.w3.org/Graphics/SVG/1.1/DTD/svg11.dtd">
<svg version="1.1" id="Layer_1" xmlns="http://www.w3.org/2000/svg" xmlns:xlink="http://www.w3.org/1999/xlink" x="0px" y="0px"
	 width="22px" height="31px" viewBox="0 0 22 31" enable-background="new 0 0 22 31" xml:space="preserve">
<path fill="none" d="M21.766,8.755C20.689,3.586,16.254,0,11.042,0c-0.734,0-1.464,0.087-2.197,0.214
	c-2.887,0.553-5.34,2.178-6.979,4.61C0.23,7.26-0.376,10.162,0.23,13.064c0.387,1.922,1.165,3.717,1.894,5.212
	c1.42,2.989,3.274,6.022,5.815,9.608c0.558,0.767,1.121,1.538,1.723,2.305c0,0,0,0,0,0.044l0.128,0.17l0.044,0.044
	C10.137,30.83,10.567,31,10.998,31c0.303,0,0.818-0.126,1.292-0.684c1.723-2.222,3.186-4.397,4.566-6.576
	c1.551-2.475,3.446-5.765,4.61-9.438C22.065,12.424,22.153,10.545,21.766,8.755z M19.912,13.835
	c-1.121,3.503-2.971,6.663-4.435,9.055c-1.336,2.135-2.8,4.227-4.435,6.406c0,0,0,0.043-0.044,0.043l-0.044-0.087
	c0,0,0-0.043-0.044-0.043l0,0c-0.558-0.767-1.121-1.538-1.679-2.306c-2.497-3.503-4.307-6.449-5.687-9.351
	c-0.69-1.408-1.42-3.076-1.767-4.867c-0.519-2.475,0-4.998,1.38-7.046c1.38-2.048,3.534-3.46,5.986-3.93
	c0.646-0.127,1.248-0.17,1.894-0.17c4.479,0,8.227,3.076,9.173,7.517C20.558,10.589,20.43,12.21,19.912,13.835z M10.91,5.722
	c-2.8,0-5.081,2.262-5.081,5.037c0,2.776,2.281,5.038,5.081,5.038s5.081-2.262,5.081-5.038C15.991,7.983,13.71,5.722,10.91,5.722z
	 M10.91,14.219c-1.938,0-3.49-1.538-3.49-3.46c0-1.922,1.551-3.46,3.49-3.46c1.938,0,3.49,1.538,3.49,3.46
	C14.4,12.681,12.849,14.219,10.91,14.219z"/>
</svg>
