<?xml version="1.0" encoding="utf-8"?>
<!-- Generator: Adobe Illustrator 17.1.0, SVG Export Plug-In . SVG Version: 6.00 Build 0)  -->
<!DOCTYPE svg PUBLIC "-//W3C//DTD SVG 1.1//EN" "http://www.w3.org/Graphics/SVG/1.1/DTD/svg11.dtd">
<svg version="1.1" id="Layer_1" xmlns="http://www.w3.org/2000/svg" xmlns:xlink="http://www.w3.org/1999/xlink" x="0px" y="0px"
	 width="30px" height="27.528px" viewBox="0 0 30 27.528" enable-background="new 0 0 30 27.528" xml:space="preserve">
<g>
	<defs>
		<rect id="SVGID_1_" x="0" y="0.001" width="30" height="27.527"/>
	</defs>
	<clipPath id="SVGID_2_">
		<use xlink:href="#SVGID_1_"  overflow="visible"/>
	</clipPath>
	<path clip-path="url(#SVGID_2_)" fill="#FFFFFF" d="M29.706,0.192C29.558,0.069,29.371,0,29.181,0c-0.114,0-0.225,0.024-0.332,0.07
		L0.837,12.343c-0.543,0.216-0.87,0.753-0.834,1.367c0.037,0.611,0.396,1.103,0.969,1.318l8.053,2.653v7.218
		c0,0.771,0.492,1.43,1.214,1.636c0.174,0.059,0.356,0.088,0.54,0.088c0.564,0,1.102-0.278,1.442-0.749l3.307-4.784l7.102,6.112
		c0.248,0.213,0.57,0.326,0.931,0.326c0.183,0,0.33-0.037,0.467-0.073c0.513-0.183,0.861-0.589,0.93-1.073l5.035-25.391
		C30.031,0.718,29.925,0.41,29.706,0.192 M14.708,19.382l-3.836,5.555l-0.135,0.045l-0.043-0.083h-0.033v-7.795
		c0-0.367-0.213-0.658-0.569-0.776l-8.121-2.717L25.059,3.518l-11.137,9.16c-0.177,0.138-0.286,0.337-0.308,0.561
		c-0.021,0.217,0.048,0.434,0.182,0.586c0.146,0.183,0.378,0.292,0.62,0.292c0.216,0,0.403-0.074,0.528-0.2l9.404-7.724
		L14.708,19.382z M23.428,25.713l-6.956-5.971l11.13-15.187L23.428,25.713z"/>
	<path clip-path="url(#SVGID_2_)" fill="#FFFFFF" d="M12.788,13.867c-0.182,0-0.364,0.054-0.527,0.164l-0.979,0.795
		c-0.177,0.138-0.286,0.337-0.308,0.561c-0.021,0.217,0.048,0.433,0.183,0.588c0.15,0.187,0.381,0.291,0.649,0.291
		c0.114,0,0.331-0.021,0.528-0.169l0.979-0.795c0.178-0.139,0.287-0.338,0.308-0.562c0.021-0.217-0.048-0.433-0.188-0.593
		C13.278,13.969,13.043,13.867,12.788,13.867"/>
</g>
</svg>
