<?xml version="1.0" encoding="utf-8"?>
<!-- Generator: Adobe Illustrator 19.2.0, SVG Export Plug-In . SVG Version: 6.00 Build 0)  -->
<svg version="1.0" id="Layer_1" xmlns="http://www.w3.org/2000/svg" xmlns:xlink="http://www.w3.org/1999/xlink" x="0px" y="0px"
	 viewBox="0 0 18 18" style="enable-background:new 0 0 18 18;" xml:space="preserve">
<style type="text/css">
	.st0{fill:#CBD2D5;}
</style>
<path class="st0" d="M9,0C4,0,0,4.1,0,9c0,5,4,9,9,9c5,0,9-4,9-9C18,4.1,14,0,9,0z M8.1,16.1C4.6,15.7,1.8,12.6,1.8,9
	c0-0.5,0.1-1.1,0.2-1.6l4.3,4.3v0.9c0,1,0.8,1.8,1.8,1.8V16.1z M14.3,13.9c-0.3-0.7-0.9-1.3-1.7-1.3h-0.9V9.9c0-0.5-0.4-0.9-0.9-0.9
	H5.4V7.2h1.8c0.5,0,0.9-0.4,0.9-0.9V4.5h1.8c1,0,1.8-0.8,1.8-1.8V2.3C14.3,3.4,16.2,6,16.2,9C16.2,10.9,15.5,12.6,14.3,13.9z"/>
</svg>
