<svg xmlns="http://www.w3.org/2000/svg" width="50" height="54" viewBox="0 0 50 54"><path fill="#0074b8" d="M49.1 48.6h-2.67V5.25A2.64 2.64 0 0 0 48.2 2.7c0-1.53-1.16-2.7-2.67-2.7H4.46A2.64 2.64 0 0 0 1.8 2.7c0 1.2.76 2.18 1.78 2.54V48.6H.9c-.53 0-.89.36-.89.9s.36.9.9.9h.89v.9c0 1.53 1.16 2.7 2.67 2.7h41.08a2.64 2.64 0 0 0 2.67-2.7v-.9h.9c.53 0 .89-.36.89-.9s-.36-.9-.9-.9zM4.47 1.8h41.08c.53 0 .89.36.89.9s-.36.9-.9.9H4.47a.9.9 0 0 1-.89-.9c0-.45.45-.9.9-.9zm.9 3.6h39.28v43.2h-1.78V8.1c0-.54-.36-.9-.9-.9H8.04c-.54 0-.9.36-.9.9v40.5H5.36zm3.57 43.2V9h13.4v39.6zM24.1 9h1.78v39.6h-1.78zm3.57 0h13.4v39.6h-13.4zm18.75 42.3c0 .54-.36.9-.9.9H4.47c-.53 0-.89-.36-.89-.9v-.9h42.86v.9zM14.02 10.17a.86.86 0 0 0-1.25 0l-2.68 2.7a.88.88 0 0 0 0 1.26.8.8 0 0 0 .62.27.8.8 0 0 0 .63-.27l2.68-2.7a.88.88 0 0 0 0-1.26zm-2.14 5.4l-1.8 1.8a.88.88 0 0 0 0 1.26.8.8 0 0 0 .63.27.8.8 0 0 0 .63-.27l1.79-1.8a.88.88 0 0 0 0-1.26.86.86 0 0 0-1.26 0zm3.92-1.44l2.68-2.7a.88.88 0 0 0 0-1.26.86.86 0 0 0-1.25 0l-2.68 2.7a.87.87 0 0 0 0 1.26.8.8 0 0 0 .63.27c.27 0 .45-.09.62-.27zm22.86 29.34l-2.68 2.7a.88.88 0 0 0 0 1.26.8.8 0 0 0 .63.27.8.8 0 0 0 .62-.27l2.68-2.7a.88.88 0 0 0 0-1.26.86.86 0 0 0-1.25 0zm0-4.5l-1.78 1.8a.88.88 0 0 0 0 1.26.8.8 0 0 0 .62.27.8.8 0 0 0 .63-.27l1.78-1.8a.88.88 0 0 0 0-1.26.86.86 0 0 0-1.25 0zm-3.21 4.5a.86.86 0 0 0-1.25 0l-2.68 2.7a.88.88 0 0 0 0 1.26.8.8 0 0 0 .62.27.8.8 0 0 0 .63-.27l2.68-2.7a.87.87 0 0 0 0-1.26zM17.85 24.3a2.64 2.64 0 0 0-2.67 2.7v3.6c0 1.53 1.16 2.7 2.68 2.7a2.64 2.64 0 0 0 2.68-2.7V27c0-1.53-1.16-2.7-2.68-2.7zm.9 6.3c0 .54-.36.9-.9.9-.53 0-.89-.36-.89-.9V27c0-.54.36-.9.9-.9.53 0 .89.45.89.9zm16.07 0V27c0-1.53-1.16-2.7-2.68-2.7a2.64 2.64 0 0 0-2.68 2.7v3.6c0 1.53 1.17 2.7 2.68 2.7a2.64 2.64 0 0 0 2.68-2.7zm-3.57 0V27c0-.54.36-.9.9-.9.53 0 .89.45.89.9v3.6c0 .54-.36.9-.9.9-.53 0-.89-.36-.89-.9z"/></svg>