<?xml version="1.0" encoding="utf-8"?>
<!-- Generator: Adobe Illustrator 17.1.0, SVG Export Plug-In . SVG Version: 6.00 Build 0)  -->
<!DOCTYPE svg PUBLIC "-//W3C//DTD SVG 1.1//EN" "http://www.w3.org/Graphics/SVG/1.1/DTD/svg11.dtd">
<svg version="1.1" id="Layer_1" xmlns="http://www.w3.org/2000/svg" xmlns:xlink="http://www.w3.org/1999/xlink" x="0px" y="0px"
	 width="16px" height="16px" viewBox="0 0 16 16" enable-background="new 0 0 16 16" xml:space="preserve">
<g>
	<defs>
		<rect id="SVGID_1_" y="0" width="16" height="16"/>
	</defs>
	<clipPath id="SVGID_2_">
		<use xlink:href="#SVGID_1_"  overflow="visible"/>
	</clipPath>
	<path clip-path="url(#SVGID_2_)" fill="#0074B8" d="M14.9,4C12.7,0.2,7.8-1.1,4,1.1C0.2,3.3-1.1,8.2,1.1,12
		c2.2,3.8,7.1,5.1,10.9,2.9C15.8,12.7,17.1,7.8,14.9,4 M11.2,13.5c-3.1,1.8-7,0.7-8.7-2.3c-1.8-3.1-0.7-7,2.3-8.7
		c3.1-1.8,7-0.7,8.7,2.3C15.3,7.9,14.3,11.8,11.2,13.5 M10.9,7.7L6.7,5.2C6.3,5,6,5.2,6,5.6l0,4.8c0,0.4,0.3,0.6,0.7,0.4l4.2-2.4
		C11.3,8.3,11.3,7.9,10.9,7.7"/>
</g>
</svg>
