<?xml version="1.0" encoding="utf-8"?>
<!-- Generator: Adobe Illustrator 17.1.0, SVG Export Plug-In . SVG Version: 6.00 Build 0)  -->
<!DOCTYPE svg PUBLIC "-//W3C//DTD SVG 1.1//EN" "http://www.w3.org/Graphics/SVG/1.1/DTD/svg11.dtd">
<svg version="1.1" id="Layer_1" xmlns="http://www.w3.org/2000/svg" xmlns:xlink="http://www.w3.org/1999/xlink" x="0px" y="0px"
	 width="30px" height="30px" viewBox="0 0 30 30" enable-background="new 0 0 30 30" xml:space="preserve">
<g>
	<path fill="none" d="M21,14.5l-8.3-5.7c-0.3-0.2-0.9-0.2-1,0.5v11.3c0.1,0.7,0.8,0.7,1,0.5l8.3-5.7C21.2,15.4,21.5,14.9,21,14.5z
		 M13,19.5v-8.9l6.5,4.5L13,19.5z M15,0C6.7,0,0,6.7,0,15c0,8.3,6.7,15,15,15c8.3,0,15-6.7,15-15C30,6.7,23.3,0,15,0z M15,28.7
		C7.4,28.7,1.3,22.6,1.3,15C1.3,7.4,7.4,1.3,15,1.3c7.6,0,13.7,6.2,13.7,13.7C28.7,22.6,22.6,28.7,15,28.7z"/>
</g>
</svg>
