<?xml version="1.0" encoding="utf-8"?>
<!-- Generator: Adobe Illustrator 17.1.0, SVG Export Plug-In . SVG Version: 6.00 Build 0)  -->
<!DOCTYPE svg PUBLIC "-//W3C//DTD SVG 1.1//EN" "http://www.w3.org/Graphics/SVG/1.1/DTD/svg11.dtd">
<svg version="1.1" id="Layer_1" xmlns="http://www.w3.org/2000/svg" xmlns:xlink="http://www.w3.org/1999/xlink" x="0px" y="0px"
	 width="40px" height="38px" viewBox="0 0 40 38" enable-background="new 0 0 40 38" xml:space="preserve">
<g>
	<path fill="none" d="M33.6,9.8H31V0.8C31,0.4,30.6,0,30.2,0H9.8C9.4,0,9,0.4,9,0.8v8.9H6.4C2.9,9.8,0,12.6,0,16v13.5
		c0,0.5,0.4,0.8,0.8,0.8H9v6.8C9,37.6,9.4,38,9.8,38h20.3c0.5,0,0.8-0.4,0.8-0.8v-6.8h8.1c0.5,0,0.8-0.4,0.8-0.8V16
		C40,12.6,37.1,9.8,33.6,9.8z M10.7,1.7h18.6v8.1H10.7V1.7z M29.3,36.3H10.7V24.9h18.6V36.3z M38.3,28.7H31v-4.6
		c0-0.5-0.4-0.8-0.8-0.8H9.8c-0.5,0-0.8,0.4-0.8,0.8v4.6H1.7V16c0-2.5,2.1-4.6,4.7-4.6h27.2c2.6,0,4.7,2.1,4.7,4.6V28.7z M31.4,14
		c-0.5,0-0.8,0.4-0.8,0.8v1.1c0,0.5,0.4,0.8,0.8,0.8c0.5,0,0.8-0.4,0.8-0.8v-1.1C32.2,14.3,31.8,14,31.4,14z M34.7,14
		c-0.5,0-0.8,0.4-0.8,0.8v1.1c0,0.5,0.4,0.8,0.8,0.8c0.5,0,0.8-0.4,0.8-0.8v-1.1C35.5,14.3,35.1,14,34.7,14z"/>
</g>
</svg>
