<?xml version="1.0" encoding="utf-8"?>
<!-- Generator: Adobe Illustrator 17.1.0, SVG Export Plug-In . SVG Version: 6.00 Build 0)  -->
<!DOCTYPE svg PUBLIC "-//W3C//DTD SVG 1.1//EN" "http://www.w3.org/Graphics/SVG/1.1/DTD/svg11.dtd">
<svg version="1.1" id="Layer_1" xmlns="http://www.w3.org/2000/svg" xmlns:xlink="http://www.w3.org/1999/xlink" x="0px" y="0px"
	 width="16px" height="16px" viewBox="0 0 16 16" enable-background="new 0 0 16 16" xml:space="preserve">
<path fill="none" d="M15.9,1.4c0-0.7-0.4-1.2-1.1-1.3c0,0,0,0,0,0L10.4,0h0C9.6,0,9.1,0.3,8.8,0.5l0,0L0.3,9.1
	c-0.4,0.4-0.4,1.2,0,1.6l5,5C5.6,15.9,5.8,16,6.1,16l0,0c0.3,0,0.6-0.1,0.8-0.3l4.2-4.2c0,0,0.1-0.1,0.1-0.2l4.1-4.1
	C15.6,7,16,6.4,16,5.5L15.9,1.4z M14.7,6.7l-4.1,4.1c0,0,0,0,0,0.1c0,0,0,0,0,0.1l-4.2,4.2c-0.1,0.1-0.3,0.1-0.5,0l-5-5
	c-0.1-0.1-0.1-0.3,0-0.5l8.5-8.5c0.2-0.2,0.5-0.3,1-0.3l4.4,0.1c0.2,0,0.3,0.1,0.3,0.5l0.1,4.1C15.2,6.1,14.9,6.5,14.7,6.7z
	 M12.3,2.2c-0.8,0-1.5,0.7-1.5,1.5c0,0.8,0.7,1.5,1.5,1.5c0.8,0,1.5-0.7,1.5-1.5C13.8,2.8,13.2,2.2,12.3,2.2z M12.3,4.4
	c-0.4,0-0.7-0.3-0.7-0.7c0-0.4,0.3-0.7,0.7-0.7S13,3.3,13,3.7C13,4,12.7,4.4,12.3,4.4z M9.5,8.3c0.2,0.2,0.2,0.4,0,0.6l-3.3,3.3
	c-0.1,0.1-0.2,0.1-0.3,0.1c-0.1,0-0.2,0-0.3-0.1c-0.2-0.2-0.2-0.4,0-0.6l3.3-3.3C9.1,8.1,9.3,8.1,9.5,8.3z M9,6l-4.6,4.6
	c-0.1,0.1-0.2,0.1-0.3,0.1c-0.1,0-0.2,0-0.3-0.1c-0.2-0.2-0.2-0.4,0-0.6l4.6-4.6c0.2-0.2,0.4-0.2,0.6,0C9.2,5.6,9.2,5.8,9,6z"/>
</svg>
