<?xml version="1.0" encoding="utf-8"?>
<!-- Generator: Adobe Illustrator 19.2.0, SVG Export Plug-In . SVG Version: 6.00 Build 0)  -->
<svg version="1.0" id="Layer_1" xmlns="http://www.w3.org/2000/svg" xmlns:xlink="http://www.w3.org/1999/xlink" x="0px" y="0px"
	 viewBox="0 0 40 50" style="enable-background:new 0 0 40 50;" xml:space="preserve">
<style type="text/css">
	.st0{fill:#2775BA;}
</style>
<g>
	<g>
		<path class="st0" d="M38.6,13H7.9c-2.8,0-5.2-2.3-5.2-5.1c0-2.8,2.3-5.1,5.2-5.1h30.7c0.8,0,1.4-0.6,1.4-1.4C40,0.6,39.4,0,38.6,0
			H7.9C3.6,0,0,3.5,0,7.9v34.3C0,46.5,3.6,50,7.9,50h30.7c0.8,0,1.4-0.6,1.4-1.4V14.4C40,13.6,39.4,13,38.6,13z M37.2,47.3H7.9
			c-2.8,0-5.2-2.3-5.2-5.1V13.8C4.2,15,6,15.7,7.9,15.7h29.3V47.3z M8.4,6.6C7.6,6.6,7,7.2,7,8c0,0.8,0.6,1.4,1.4,1.4h25.9
			c0.8,0,1.4-0.6,1.4-1.4c0-0.8-0.6-1.4-1.4-1.4H8.4z M13.2,41.3c0.2,0.1,0.3,0.1,0.5,0.1c0.6,0,1.1-0.4,1.3-0.9l1.7-4.7h6.5
			c0.1,0,0.1,0,0.2,0l1.7,4.7c0.2,0.6,0.7,0.9,1.3,0.9c0.2,0,0.3,0,0.5-0.1c0.7-0.3,1.1-1,0.8-1.8L21.3,22c0,0,0-0.1-0.1-0.1
			c0,0,0,0,0-0.1c0,0,0,0,0-0.1c0,0,0,0,0-0.1c0,0,0,0,0,0c0,0,0,0-0.1-0.1c0,0,0,0,0,0c0,0,0,0-0.1-0.1c0,0,0,0-0.1-0.1
			c0,0,0,0,0,0c0,0,0,0-0.1-0.1c0,0,0,0,0,0c0,0,0,0-0.1,0c0,0,0,0-0.1,0c0,0,0,0-0.1,0c0,0-0.1,0-0.1-0.1h0c0,0-0.1,0-0.1,0
			c0,0,0,0-0.1,0c0,0-0.1,0-0.1,0c0,0,0,0-0.1,0c0,0-0.1,0-0.1,0c0,0,0,0-0.1,0s0,0-0.1,0c0,0-0.1,0-0.1,0c0,0,0,0-0.1,0
			c0,0-0.1,0-0.1,0c0,0,0,0-0.1,0c0,0-0.1,0-0.1,0h0c0,0-0.1,0-0.1,0.1c0,0,0,0-0.1,0c0,0,0,0-0.1,0c0,0,0,0-0.1,0c0,0,0,0,0,0
			c0,0,0,0-0.1,0.1c0,0,0,0,0,0c0,0,0,0-0.1,0.1c0,0,0,0-0.1,0.1c0,0,0,0,0,0c0,0,0,0-0.1,0.1c0,0,0,0,0,0c0,0,0,0,0,0.1
			c0,0,0,0,0,0.1c0,0,0,0,0,0.1c0,0,0,0.1-0.1,0.1l-6.3,17.5C12.1,40.2,12.5,41,13.2,41.3z M20,26.6l2.3,6.5h-4.7L20,26.6z"/>
	</g>
</g>
</svg>
