<svg xmlns="http://www.w3.org/2000/svg" width="20" height="24" viewBox="0 0 20 24"><path fill="#fff" d="M19.13 2.56h-4.64V.88a.88.88 0 0 0-.87-.88H6.38c-.47 0-.86.4-.86.88v4.64c0 .49.39.89.86.89h5.35c.48 0 .87-.4.87-.89a.88.88 0 0 0-.87-.88H7.25V1.76h5.51v1.68c0 .49.39.88.87.88h4.64v17.92H1.73V4.32h1.32c.48 0 .87-.4.87-.88a.88.88 0 0 0-.87-.88H.87c-.48 0-.87.4-.87.88v19.68c0 .48.39.88.87.88h18.26c.48 0 .87-.4.87-.88V3.44a.88.88 0 0 0-.87-.88zm-5.14 8.08a.86.86 0 0 0-1.23 0L8.73 14.7 7.25 13.2a.86.86 0 0 0-1.23 0 .9.9 0 0 0 0 1.24l2.09 2.14a.86.86 0 0 0 1.22 0l4.66-4.7a.9.9 0 0 0 0-1.24z"/></svg>