<?xml version="1.0" encoding="utf-8"?>
<!-- Generator: Adobe Illustrator 17.1.0, SVG Export Plug-In . SVG Version: 6.00 Build 0)  -->
<!DOCTYPE svg PUBLIC "-//W3C//DTD SVG 1.1//EN" "http://www.w3.org/Graphics/SVG/1.1/DTD/svg11.dtd">
<svg version="1.1" id="Layer_1" xmlns="http://www.w3.org/2000/svg" xmlns:xlink="http://www.w3.org/1999/xlink" x="0px" y="0px"
	 width="50px" height="40px" viewBox="0 0 50 40" enable-background="new 0 0 50 40" xml:space="preserve">
<g>
	<path fill="none" d="M17,23.344c0,0-2.216,0.002-2.239,0.004c-0.275,0.019-0.544,0.131-0.754,0.341l-6.657,6.643
		c0,0-0.002-5.885-0.006-5.915c-0.053-0.601-0.558-1.072-1.174-1.072H2.816c-0.252,0-0.456-0.204-0.456-0.455V2.809
		c0-0.251,0.205-0.456,0.456-0.456h33.541c0.252,0,0.456,0.204,0.456,0.456v7.704c0,0.65,0.528,1.177,1.18,1.177
		c0.651,0,1.179-0.527,1.179-1.177V2.809C39.172,1.26,37.909,0,36.357,0H2.816C1.263,0,0,1.26,0,2.809v20.079
		c0,1.549,1.263,2.81,2.816,2.81h2.175v7.475c0,0.476,0.287,0.905,0.728,1.087c0.146,0.06,0.299,0.09,0.451,0.09
		c0.307,0,0.609-0.12,0.834-0.345l8.325-8.307H17c0.651,0,1.18-0.527,1.18-1.177C18.179,23.871,17.651,23.344,17,23.344z
		 M47.185,14.396H23.707c-1.552,0-2.816,1.26-2.816,2.809v13.698c0,1.549,1.263,2.81,2.816,2.81h14.699l5.955,5.942
		C44.586,39.881,44.888,40,45.195,40c0.152,0,0.305-0.03,0.451-0.09c0.441-0.182,0.728-0.611,0.728-1.087v-5.11h0.811
		c1.553,0,2.816-1.26,2.816-2.81V17.206C50,15.656,48.737,14.396,47.185,14.396z M47.641,30.904c0,0.251-0.205,0.455-0.456,0.455
		h-1.99c-0.621,0-1.128,0.479-1.175,1.086c-0.003,0.026-0.005,3.536-0.005,3.536l-4.283-4.273c-0.005-0.004-0.009-0.009-0.014-0.013
		c-0.017-0.016-0.033-0.031-0.048-0.043c-0.208-0.182-0.479-0.293-0.776-0.293H23.707c-0.252,0-0.456-0.204-0.456-0.456V17.206
		c0-0.251,0.205-0.456,0.456-0.456h23.478c0.252,0,0.456,0.204,0.456,0.456V30.904z M35.446,22.878
		c-0.651,0-1.179,0.527-1.179,1.177c0,0.65,0.528,1.177,1.179,1.177c0.651,0,1.179-0.527,1.179-1.177
		C36.625,23.405,36.097,22.878,35.446,22.878z M31.499,8.958c0-0.65-0.528-1.177-1.179-1.177H8.853c-0.651,0-1.18,0.527-1.18,1.177
		c0,0.65,0.528,1.177,1.18,1.177H30.32C30.971,10.135,31.499,9.608,31.499,8.958z M8.853,15.563c-0.651,0-1.18,0.527-1.18,1.177
		c0,0.65,0.528,1.177,1.18,1.177H17c0.652,0,1.18-0.527,1.18-1.177c0-0.65-0.528-1.177-1.18-1.177H8.853z M29.965,22.878
		c-0.651,0-1.18,0.527-1.18,1.177c0,0.65,0.529,1.177,1.18,1.177c0.651,0,1.18-0.527,1.18-1.177
		C31.144,23.405,30.616,22.878,29.965,22.878z M40.926,22.878c-0.651,0-1.179,0.527-1.179,1.177c0,0.65,0.528,1.177,1.179,1.177
		c0.651,0,1.18-0.527,1.18-1.177C42.105,23.405,41.577,22.878,40.926,22.878z"/>
</g>
</svg>
