<svg xmlns="http://www.w3.org/2000/svg" width="24" height="24" viewBox="0 0 24 24"><path fill="#0074b8" d="M22.55 9.97h-4.76c-.24 0-.43.2-.43.45s.2.45.43.45h3.97l1.27 12.22H.99l1.48-12.22h3.98c.24 0 .44-.2.44-.45s-.2-.45-.44-.45H1.7L0 24h24zm-10.92 7.22l-.2.11-.28.2a.47.47 0 0 0-.1.64c.1.12.23.18.36.18.09 0 .18-.03.26-.08a4.28 4.28 0 0 1 .68-.44c.2-.1.29-.36.2-.57l.01-.01c.8-.87 3.45-4.12 4.55-9.54.22-1.1.27-2.15.15-3.13C16.88 1.57 15.1 0 12.11 0c-3 0-4.78 1.57-5.16 4.55-.12.98-.07 2.03.15 3.13 1.1 5.37 3.71 8.6 4.53 9.5zM7.82 4.67C8.14 2.14 9.54.9 12.1.9c2.56 0 3.97 1.23 4.29 3.76.1.88.06 1.83-.14 2.83a20.2 20.2 0 0 1-4.15 8.9 20.2 20.2 0 0 1-4.15-8.9c-.2-1-.25-1.95-.14-2.83zm4.29 3.9c1.77 0 3.2-1.5 3.2-3.33a3.27 3.27 0 0 0-3.2-3.33c-1.77 0-3.2 1.5-3.2 3.33a3.27 3.27 0 0 0 3.2 3.33zm0-5.75a2.38 2.38 0 0 1 2.33 2.42 2.38 2.38 0 0 1-2.33 2.42 2.38 2.38 0 0 1-2.34-2.42 2.38 2.38 0 0 1 2.34-2.42zm1.6 13.55a.45.45 0 0 0-.34.54.44.44 0 0 0 .52.35c.26-.06.53-.1.82-.14.24-.03.41-.26.38-.5a.44.44 0 0 0-.48-.4c-.32.04-.62.1-.9.15zm2.26.19c0 .24.2.43.43.43h.02l.87-.04a.45.45 0 0 0 .42-.47c-.01-.25-.24-.44-.46-.43l-.87.04a.44.44 0 0 0-.41.47zm-6.18 2.08c-.23.18-.46.35-.7.5a.46.46 0 0 0-.12.63.42.42 0 0 0 .6.13c.25-.17.5-.35.74-.54.2-.15.23-.43.09-.63a.43.43 0 0 0-.61-.09zm9.72-2.98c-.15.1-.34.18-.59.23a.45.45 0 0 0-.34.54c.05.21.23.36.43.36h.09c.37-.09.66-.21.91-.4l.06-.04c.2-.15.23-.44.08-.63a.43.43 0 0 0-.6-.1zM3.87 19.2a.45.45 0 0 0-.31-.56.43.43 0 0 0-.54.32 3.1 3.1 0 0 0-.1.64v.16l.01.26c.03.23.22.41.44.41h.04a.45.45 0 0 0 .4-.5 1.75 1.75 0 0 1-.01-.29c0-.15.03-.3.06-.44zm15.63-7.06c-.35-.05-.7-.02-1.04.08a.45.45 0 0 0-.3.56.44.44 0 0 0 .54.31c.22-.07.46-.09.68-.06.25.04.46-.14.5-.38a.45.45 0 0 0-.38-.51zm.87 2.24c-.07.24.06.5.29.57l.12.02c.19 0 .36-.13.42-.32a2 2 0 0 0 .08-.55c0-.21-.03-.43-.1-.63a.43.43 0 0 0-.57-.27.46.46 0 0 0-.26.58c.04.1.06.21.06.32v.05c0 .08-.02.15-.04.23zM7.63 19.99c-.26.13-.52.24-.78.35a.45.45 0 0 0-.25.58c.07.18.23.29.4.29.06 0 .11-.01.17-.03.27-.11.55-.23.83-.37.21-.1.3-.37.2-.6a.43.43 0 0 0-.57-.22zm-3.18-1.88c.07 0 .14-.02.2-.06.13-.07.27-.11.4-.13a.7.7 0 0 1 .18 0c.25.04.46-.14.5-.39a.45.45 0 0 0-.38-.5 1.88 1.88 0 0 0-1.1.23.46.46 0 0 0-.18.61c.08.15.23.24.38.24zm-.1 3.55l.3.06.33.02c.14 0 .27-.01.41-.03.24-.03.4-.26.38-.51a.44.44 0 0 0-.49-.39c-.17.02-.35.03-.53.01l-.17-.04a.44.44 0 0 0-.53.33c-.06.24.08.49.3.55z"/></svg>