<?xml version="1.0" encoding="utf-8"?>
<!-- Generator: Adobe Illustrator 19.2.0, SVG Export Plug-In . SVG Version: 6.00 Build 0)  -->
<svg version="1.0" id="Layer_1" xmlns="http://www.w3.org/2000/svg" xmlns:xlink="http://www.w3.org/1999/xlink" x="0px" y="0px"
	 viewBox="0 0 24 24" style="enable-background:new 0 0 24 24;" xml:space="preserve">
<style type="text/css">
	.st0{fill:#272727;}
</style>
<path class="st0" d="M23.7,22.6l-7.2-7.2c1.4-1.6,2.2-3.7,2.2-6c0-5.1-4.3-9.4-9.4-9.4C4.3,0,0,4.3,0,9.4c0,5.1,4.3,9.4,9.4,9.4
	c2.2,0,4.3-0.8,5.9-2.1l7.1,7.1c0.2,0.2,0.3,0.2,0.7,0.2c0.3,0,0.5,0,0.7-0.2C24.1,23.5,24.1,23,23.7,22.6L23.7,22.6z M9.4,17.1
	c-4.3,0-7.7-3.4-7.7-7.7s3.4-7.7,7.7-7.7c4.3,0,7.7,3.4,7.7,7.7S13.7,17.1,9.4,17.1z"/>
</svg>
