<?xml version="1.0" encoding="utf-8"?>
<!-- Generator: Adobe Illustrator 19.2.0, SVG Export Plug-In . SVG Version: 6.00 Build 0)  -->
<svg version="1.0" id="Layer_1" xmlns="http://www.w3.org/2000/svg" xmlns:xlink="http://www.w3.org/1999/xlink" x="0px" y="0px"
	 viewBox="0 0 31 37" style="enable-background:new 0 0 31 37;" xml:space="preserve">
<style type="text/css">
	.st0{fill:#2775BA;}
</style>
<path class="st0" d="M25.5,26.3c-1.5,0-2.9,0.7-3.9,1.7l-11.1-7.6c0.2-0.6,0.3-1.2,0.3-1.9c0-0.7-0.1-1.3-0.4-1.9L21.6,9
	c1,1,2.4,1.7,3.9,1.7c3,0,5.4-2.4,5.4-5.4S28.4,0,25.5,0s-5.4,2.4-5.4,5.4c0,0.8,0.2,1.6,0.5,2.3l-11,7.5c-1-1.2-2.5-2-4.2-2
	c-3,0-5.4,2.4-5.4,5.4c0,3,2.4,5.4,5.4,5.4c1.7,0,3.2-0.8,4.2-2l11,7.5c-0.3,0.7-0.5,1.5-0.5,2.3c0,3,2.4,5.4,5.4,5.4
	s5.4-2.4,5.4-5.4C30.9,28.7,28.4,26.3,25.5,26.3z M25.5,1.6c2.1,0,3.7,1.7,3.7,3.7s-1.7,3.7-3.7,3.7s-3.7-1.7-3.7-3.7
	S23.4,1.6,25.5,1.6z M5.5,22.2c-2.1,0-3.7-1.7-3.7-3.7c0-2.1,1.7-3.7,3.7-3.7s3.7,1.7,3.7,3.7C9.2,20.6,7.6,22.2,5.5,22.2z
	 M25.5,35.4c-2.1,0-3.7-1.7-3.7-3.7c0-2.1,1.7-3.7,3.7-3.7s3.7,1.7,3.7,3.7C29.2,33.7,27.5,35.4,25.5,35.4z"/>
</svg>
