<?xml version="1.0" encoding="utf-8"?>
<!-- Generator: Adobe Illustrator 17.1.0, SVG Export Plug-In . SVG Version: 6.00 Build 0)  -->
<!DOCTYPE svg PUBLIC "-//W3C//DTD SVG 1.1//EN" "http://www.w3.org/Graphics/SVG/1.1/DTD/svg11.dtd">
<svg version="1.1" id="Layer_1" xmlns="http://www.w3.org/2000/svg" xmlns:xlink="http://www.w3.org/1999/xlink" x="0px" y="0px"
	 width="16px" height="15px" viewBox="0 0 16 15" enable-background="new 0 0 16 15" xml:space="preserve">
<path fill="none" d="M16,5.7c0-0.1-0.2-0.4-0.6-0.4l-4.7-0.7L8.6,0.5C8.4,0.1,8.2,0,8,0C7.6,0,7.4,0.4,7.3,0.5L5.3,4.5L0.6,5.2
	C0.3,5.2,0.1,5.4,0,5.7c-0.1,0.3,0,0.5,0.3,0.8l3.3,3.2l-0.8,4.5c0,0.1-0.1,0.5,0.1,0.7C3.2,15,3.5,15,3.8,14.9c0,0,0,0,0,0L8,12.7
	l4.2,2.2c0.2,0.1,0.3,0.1,0.4,0.1c0.2,0,0.3-0.1,0.4-0.2c0.1-0.1,0.2-0.3,0.1-0.6l-0.8-4.7l3.4-3.2C16,6.1,16,5.8,16,5.7z M11.6,9.2
	c-0.1,0.1-0.1,0.2-0.1,0.3l0.8,4.5l-4.1-2.1c-0.1-0.1-0.3-0.1-0.4,0L3.7,14l0.8-4.5c0-0.1,0-0.3-0.1-0.3L1,6l4.6-0.7
	c0.1,0,0.2-0.1,0.3-0.2L8,1L10,5.1c0.1,0.1,0.2,0.2,0.3,0.2L15,6L11.6,9.2z"/>
</svg>
