<?xml version="1.0" encoding="utf-8"?>
<!-- Generator: Adobe Illustrator 17.1.0, SVG Export Plug-In . SVG Version: 6.00 Build 0)  -->
<!DOCTYPE svg PUBLIC "-//W3C//DTD SVG 1.1//EN" "http://www.w3.org/Graphics/SVG/1.1/DTD/svg11.dtd">
<svg version="1.1" id="Layer_1" xmlns="http://www.w3.org/2000/svg" xmlns:xlink="http://www.w3.org/1999/xlink" x="0px" y="0px"
	 width="33.7px" height="30.1px" viewBox="0 0 33.7 30.1" enable-background="new 0 0 33.7 30.1" xml:space="preserve">
<path fill="none" stroke="#000000" stroke-width="1.5" stroke-miterlimit="10" d="M13.6,0.8c7,0,12.8,5.7,12.8,12.8v11.3
	c0,0.9-0.6,1.5-1.5,1.5c-3.7,0-7.6,0-11.3,0c-7.1,0-12.9-5.7-12.9-12.8C0.8,6.5,6.5,0.8,13.6,0.8L13.6,0.8z"/>
<path fill="none" stroke="#000000" stroke-width="1.5" stroke-miterlimit="10" d="M13.6,4.6c-5,0-9,4-9,9c0,4.9,4,9,9,9
	c4.9,0,9-4,9-9C22.6,8.6,18.5,4.6,13.6,4.6L13.6,4.6z"/>
<line fill="none" stroke="#000000" stroke-width="1.5" stroke-linecap="round" stroke-linejoin="round" stroke-miterlimit="10" x1="10.5" y1="13.6" x2="10.7" y2="13.6"/>
<line fill="none" stroke="#000000" stroke-width="1.5" stroke-linecap="round" stroke-linejoin="round" stroke-miterlimit="10" x1="13.5" y1="13.6" x2="13.7" y2="13.6"/>
<line fill="none" stroke="#000000" stroke-width="1.5" stroke-linecap="round" stroke-linejoin="round" stroke-miterlimit="10" x1="16.5" y1="13.6" x2="16.6" y2="13.6"/>
<polyline fill="none" stroke="#000000" stroke-width="1.5" stroke-linecap="round" stroke-linejoin="round" stroke-miterlimit="10" points="
	26.4,22.7 33,22.7 33,26.4 "/>
<path fill="none" stroke="#000000" stroke-width="1.5" stroke-linecap="round" stroke-linejoin="round" stroke-miterlimit="10" d="
	M22.4,26.4v3H17c-1.6,0-2.8-1.4-2.8-3l0,0l0,0H22.4z"/>
</svg>
