<?xml version="1.0" encoding="utf-8"?>
<!-- Generator: Adobe Illustrator 17.1.0, SVG Export Plug-In . SVG Version: 6.00 Build 0)  -->
<!DOCTYPE svg PUBLIC "-//W3C//DTD SVG 1.1//EN" "http://www.w3.org/Graphics/SVG/1.1/DTD/svg11.dtd">
<svg version="1.1" id="Layer_1" xmlns="http://www.w3.org/2000/svg" xmlns:xlink="http://www.w3.org/1999/xlink" x="0px" y="0px"
	 width="20px" height="22px" viewBox="0 0 20 22" enable-background="new 0 0 20 22" xml:space="preserve">
<g>
	<path fill="none" d="M19.3,5.1h-3.6c0-0.7-0.2-2.2-1.4-3.5C13.3,0.6,11.8,0,9.9,0c-2,0-3.4,0.6-4.3,1.7c-1,1.2-1.1,2.8-1,3.4H0.7
		C0.3,5.1,0,5.5,0,5.9c0,0.4,0.3,0.8,0.7,0.8h1.5v14.6C2.2,21.7,2.6,22,3,22h13.7c0.4,0,0.7-0.3,0.7-0.8V6.6h1.9
		c0.4,0,0.7-0.3,0.7-0.8C20,5.5,19.7,5.1,19.3,5.1z M6.6,2.6c0.6-0.8,1.7-1.1,3.2-1.1c1.5,0,2.7,0.4,3.4,1.2c0.8,0.9,0.9,2,1,2.4H6
		C5.9,4.7,5.9,3.5,6.6,2.6z M15.9,20.5H3.7V6.6h12.2V20.5z M7.5,18.4c0.4,0,0.7-0.3,0.7-0.8V9c0-0.4-0.3-0.8-0.7-0.8
		C7,8.2,6.7,8.6,6.7,9v8.6C6.7,18,7,18.4,7.5,18.4z M12.2,18.4c0.4,0,0.7-0.3,0.7-0.8V9c0-0.4-0.3-0.8-0.7-0.8S11.4,8.6,11.4,9v8.6
		C11.4,18,11.8,18.4,12.2,18.4z"/>
</g>
</svg>
