<?xml version="1.0" encoding="utf-8"?>
<!-- Generator: Adobe Illustrator 17.1.0, SVG Export Plug-In . SVG Version: 6.00 Build 0)  -->
<!DOCTYPE svg PUBLIC "-//W3C//DTD SVG 1.1//EN" "http://www.w3.org/Graphics/SVG/1.1/DTD/svg11.dtd">
<svg version="1.1" id="Layer_1" xmlns="http://www.w3.org/2000/svg" xmlns:xlink="http://www.w3.org/1999/xlink" x="0px" y="0px"
	 width="30px" height="30px" viewBox="0 0 30 30" enable-background="new 0 0 30 30" xml:space="preserve">
<path fill="none" d="M30,15.002C30,6.735,23.264,0,14.998,0S0,6.735,0,15.002c0,4.553,2.066,8.649,5.279,11.402
	c0.039,0.039,0.078,0.078,0.152,0.113C8.032,28.7,11.363,30,15.037,30c3.596,0,6.927-1.3,9.528-3.405
	c0.152-0.039,0.269-0.152,0.344-0.269C28.012,23.534,30,19.516,30,15.002z M1.378,15.002c0-7.501,6.123-13.624,13.623-13.624
	c7.501,0,13.623,6.123,13.623,13.624c0,3.674-1.453,7.001-3.827,9.453c-0.383-1.8-1.531-4.861-5.053-6.849
	c0.804-0.996,1.261-2.296,1.261-3.674c0-3.292-2.679-5.97-5.97-5.97c-3.292,0-5.97,2.679-5.97,5.97c0,1.378,0.496,2.64,1.261,3.674
	c-3.554,1.988-4.702,5.049-5.045,6.849C2.87,22.042,1.378,18.676,1.378,15.002z M10.41,13.967c0-2.526,2.066-4.592,4.592-4.592
	s4.592,2.066,4.592,4.592s-2.066,4.592-4.592,4.592S10.41,16.493,10.41,13.967z M6.505,25.638c0.078-1.109,0.687-4.861,4.822-6.966
	c1.035,0.804,2.296,1.261,3.674,1.261c1.378,0,2.679-0.496,3.713-1.3c4.096,2.105,4.744,5.779,4.861,6.966
	c-2.335,1.874-5.318,3.022-8.532,3.022C11.788,28.625,8.84,27.516,6.505,25.638z"/>
</svg>
