<?xml version="1.0" encoding="utf-8"?>
<!-- Generator: Adobe Illustrator 17.1.0, SVG Export Plug-In . SVG Version: 6.00 Build 0)  -->
<!DOCTYPE svg PUBLIC "-//W3C//DTD SVG 1.1//EN" "http://www.w3.org/Graphics/SVG/1.1/DTD/svg11.dtd">
<svg version="1.1" id="Layer_1" xmlns="http://www.w3.org/2000/svg" xmlns:xlink="http://www.w3.org/1999/xlink" x="0px" y="0px"
	 width="48px" height="48px" viewBox="0 0 48 48" enable-background="new 0 0 48 48" xml:space="preserve">
<g>
	<path fill="none" d="M44.8,12c-3.2-5.5-8.4-9.5-14.6-11.2C24-0.8,17.6,0,12,3.2C6.5,6.4,2.5,11.6,0.8,17.8C-0.8,24,0,30.4,3.2,36
		c3.2,5.5,8.4,9.5,14.6,11.2C19.9,47.7,22,48,24,48c4.2,0,8.3-1.1,12-3.2c5.5-3.2,9.5-8.4,11.2-14.6C48.8,24,48,17.6,44.8,12z
		 M44.8,29.6c-1.5,5.5-5,10.2-10,13.1c-5,2.9-10.8,3.6-16.3,2.1c-5.5-1.5-10.2-5-13.1-10c-2.9-5-3.6-10.8-2.1-16.3
		c1.5-5.5,5-10.2,10-13c3.3-1.9,7-2.9,10.7-2.9c1.9,0,3.7,0.2,5.6,0.7c5.5,1.5,10.2,5,13.1,10C45.5,18.2,46.2,24,44.8,29.6z
		 M35.5,21.7l-15.4-8.9c-0.8-0.5-1.8-0.5-2.6,0c-0.8,0.5-1.3,1.3-1.3,2.3v17.8c0,0.9,0.5,1.8,1.3,2.3c0.4,0.2,0.9,0.4,1.3,0.4
		c0.4,0,0.9-0.1,1.3-0.4l15.4-8.9c0.8-0.5,1.3-1.3,1.3-2.3C36.8,23.1,36.3,22.2,35.5,21.7z M34.3,24.1L18.8,33c0,0-0.1,0-0.1,0
		c-0.1,0-0.1-0.1-0.1-0.1V15.1c0,0,0-0.1,0.1-0.1c0,0,0,0,0.1,0c0,0,0,0,0.1,0l15.4,8.9c0,0,0.1,0,0.1,0.1
		C34.3,24.1,34.3,24.1,34.3,24.1z M26.5,5.5c-0.7-0.1-1.3,0.4-1.4,1.1C25,7.3,25.5,7.9,26.2,8c4.2,0.6,8,2.8,10.6,6.1
		c0.2,0.3,0.6,0.5,1,0.5c0.3,0,0.5-0.1,0.8-0.3c0.5-0.4,0.6-1.2,0.2-1.8C35.8,8.8,31.3,6.2,26.5,5.5z"/>
</g>
</svg>
