<?xml version="1.0" encoding="utf-8"?>
<!-- Generator: Adobe Illustrator 17.1.0, SVG Export Plug-In . SVG Version: 6.00 Build 0)  -->
<!DOCTYPE svg PUBLIC "-//W3C//DTD SVG 1.1//EN" "http://www.w3.org/Graphics/SVG/1.1/DTD/svg11.dtd">
<svg version="1.1" id="Layer_1" xmlns="http://www.w3.org/2000/svg" xmlns:xlink="http://www.w3.org/1999/xlink" x="0px" y="0px"
	 width="38px" height="49px" viewBox="0 0 38 49" enable-background="new 0 0 38 49" xml:space="preserve">
<g>
	<path fill="none" d="M19,0C8.5,0,0,8.5,0,19v30h38V19C38,8.5,29.5,0,19,0z M31,7L19.7,18.3V2.1C24.1,2.2,28.1,4.1,31,7z M17.7,2.1
		v16.2l-11-11C9.5,4.4,13.4,2.4,17.7,2.1z M5.4,8.9L15.5,19H2C2,15.2,3.3,11.7,5.4,8.9z M2,47V21h10V47H2z M14,47V21h10V47H14z
		 M36,47H26V21h10V47z M21.8,19L32.3,8.5C34.6,11.4,36,15,36,19H21.8z"/>
</g>
</svg>
