<?xml version="1.0" encoding="utf-8"?>
<!-- Generator: Adobe Illustrator 17.1.0, SVG Export Plug-In . SVG Version: 6.00 Build 0)  -->
<!DOCTYPE svg PUBLIC "-//W3C//DTD SVG 1.1//EN" "http://www.w3.org/Graphics/SVG/1.1/DTD/svg11.dtd">
<svg version="1.1" id="Layer_1" xmlns="http://www.w3.org/2000/svg" xmlns:xlink="http://www.w3.org/1999/xlink" x="0px" y="0px"
	 width="28.001px" height="28px" viewBox="0 0 28.001 28" enable-background="new 0 0 28.001 28" xml:space="preserve">
<g>
	<path fill="none" d="M27.379,6.465c-0.127-0.288-0.388-0.495-0.697-0.552c-0.31-0.058-0.627,0.04-0.85,0.262l-3.526,3.512
		c-0.534,0.534-1.244,0.828-1.999,0.828c-0.755,0-1.465-0.294-1.999-0.828c-0.534-0.534-0.828-1.244-0.828-1.999
		c0-0.755,0.294-1.465,0.827-1.998l3.522-3.513c0.223-0.222,0.322-0.541,0.265-0.851c-0.058-0.31-0.264-0.572-0.553-0.699
		C20.616,0.217,19.587,0,18.566,0c-1.898,0-3.658,0.716-4.957,2.015l-1.161,1.161c-2.013,2.013-2.609,4.981-1.583,7.581L1.32,20.304
		C0.469,21.155,0,22.288,0,23.492c0,1.204,0.469,2.336,1.32,3.188C2.172,27.531,3.303,28,4.507,28c1.204,0,2.336-0.469,3.187-1.32
		l9.546-9.548c0.819,0.32,1.699,0.488,2.582,0.488c1.887,0,3.662-0.735,4.996-2.07l1.161-1.161
		C28.013,12.354,28.575,9.169,27.379,6.465z M24.629,13.037l-1.161,1.161c-0.974,0.974-2.268,1.51-3.646,1.51
		c-0.825,0-1.641-0.194-2.368-0.572c-0.404-0.21-0.87-0.082-1.185,0.252l-9.924,9.94C5.853,25.82,5.201,26.09,4.507,26.09
		c-0.694,0-1.346-0.27-1.837-0.761C2.18,24.838,1.91,24.186,1.91,23.492c0-0.694,0.27-1.346,0.761-1.837l9.936-9.928
		c0.343-0.326,0.461-0.782,0.252-1.186c-1.039-2.004-0.657-4.417,0.94-6.014l1.161-1.161c0.938-0.938,2.219-1.455,3.606-1.455
		c0.258,0,0.516,0.019,0.771,0.055l-2.378,2.372c-0.895,0.895-1.387,2.084-1.387,3.35c0,1.265,0.493,2.455,1.387,3.35
		c0.895,0.895,2.084,1.388,3.349,1.388c1.265,0,2.455-0.493,3.348-1.386l2.385-2.376C26.267,10.262,25.765,11.9,24.629,13.037z
		 M4.728,21.78c-0.398,0-0.772,0.155-1.053,0.436c-0.281,0.281-0.436,0.656-0.436,1.054c0,0.398,0.155,0.772,0.436,1.054
		c0.281,0.281,0.655,0.436,1.053,0.436c0.398,0,0.772-0.155,1.054-0.436c0.281-0.281,0.436-0.656,0.436-1.054
		c0-0.398-0.155-0.773-0.436-1.054C5.501,21.935,5.126,21.78,4.728,21.78z"/>
</g>
</svg>
