<svg xmlns="http://www.w3.org/2000/svg" width="36" height="18" viewBox="0 0 36 18"><path fill="#fff" d="M35.37 17.98h.04l.04-.01.03-.02.04-.01.03-.01.04-.02.03-.02.03-.02.04-.02.02-.03a.15.15 0 0 0 .05-.04l.01-.01v-.01l.05-.04.03-.03.02-.03.02-.04.02-.03c0-.01 0-.02.02-.03l.01-.04.01-.03.02-.04v-.03l.02-.04v-.04-.03l.01-.08V.77a.77.77 0 0 0-.78-.77h-24.6H10.57l-.03.01h-.04l-.04.01-.04.01-.03.01-.04.01-.03.02-.04.01-.03.02-.04.02-.02.02-.04.03-.03.02-.02.02-.03.03-.02.02v.01A.77.77 0 0 0 10 .3l-.02.03-.03.03-.01.03-.02.04-.02.03L9.9.5l-.02.03v.04L9.85.6v.08l-.01.03v4.81c0 .42.35.77.78.77.43 0 .78-.35.78-.77V2.48l6.94 6.06-.1.09-6.84 6.74v-5.06a.77.77 0 0 0-.78-.77.77.77 0 0 0-.78.77v.94H5.8a.78.78 0 0 0-.78.77c0 .43.35.77.78.77h4.04v4.44c0 .42.35.77.78.77H35.3l.03-.01.04-.01zM27.6 8.63l-.01-.02 5.14-4.3a.76.76 0 0 0 .09-1.08.78.78 0 0 0-1.1-.09l-8.79 7.35L12.7 1.54h21.75v13.83zm-8.25 1.09a.8.8 0 0 0 .14-.19l2.92 2.55a.75.75 0 0 0 1.02.01L26.4 9.6l.1.12 6.83 6.74H12.51zM.78 8.77h13.19c.43 0 .78-.35.78-.77a.77.77 0 0 0-.78-.77H.78A.77.77 0 0 0 0 8c0 .42.35.77.78.77zm1.37-4.24h5.92c.43 0 .78-.35.78-.77a.77.77 0 0 0-.78-.77H2.15a.77.77 0 0 0-.78.77c0 .42.35.77.78.77zM6.5 14.5H.78a.78.78 0 0 0-.78.77c0 .43.35.77.78.77h5.73c.43 0 .78-.34.78-.77a.78.78 0 0 0-.78-.77z"/></svg>