<?xml version="1.0" encoding="utf-8"?>
<!-- Generator: Adobe Illustrator 17.1.0, SVG Export Plug-In . SVG Version: 6.00 Build 0)  -->
<!DOCTYPE svg PUBLIC "-//W3C//DTD SVG 1.1//EN" "http://www.w3.org/Graphics/SVG/1.1/DTD/svg11.dtd">
<svg version="1.1" id="Layer_1" xmlns="http://www.w3.org/2000/svg" xmlns:xlink="http://www.w3.org/1999/xlink" x="0px" y="0px"
	 width="5413.5px" height="1369.5px" viewBox="0 0 5413.5 1369.5" enable-background="new 0 0 5413.5 1369.5" xml:space="preserve">
<g>
	<defs>
		<path id="SVGID_1_" d="M0,61.9v622.8v635.3c0.3,14.4,6.9,24.3,17,27.7l668.6-662.9L22.6,27.3C9.5,31,0.4,42.6,0,61.9"/>
	</defs>
	<clipPath id="SVGID_2_">
		<use xlink:href="#SVGID_1_"  overflow="visible"/>
	</clipPath>
	
		<linearGradient id="SVGID_3_" gradientUnits="userSpaceOnUse" x1="0" y1="1369.52" x2="1" y2="1369.52" gradientTransform="matrix(0 1359.636 1359.636 0 -1861705.875 4.9399)">
		<stop  offset="0" style="stop-color:#257CB0"/>
		<stop  offset="0.2863" style="stop-color:#4A93B5"/>
		<stop  offset="0.767" style="stop-color:#78BCBB"/>
		<stop  offset="1" style="stop-color:#89CFBD"/>
	</linearGradient>
	<rect x="0" y="27.3" clip-path="url(#SVGID_2_)" fill="url(#SVGID_3_)" width="685.6" height="1320.4"/>
</g>
<g>
	<defs>
		<path id="SVGID_4_" d="M22.6,27.3l663,657.4l184.1-182.6L593,342.4c0,0-4.8-2.8-13.4-7.8l-0.2-0.1c0,0,0,0,0,0L57.9,33.4
			c-8.9-4.9-17.7-7.3-25.7-7.3C28.8,26.1,25.6,26.5,22.6,27.3"/>
	</defs>
	<clipPath id="SVGID_5_">
		<use xlink:href="#SVGID_4_"  overflow="visible"/>
	</clipPath>
	
		<linearGradient id="SVGID_6_" gradientUnits="userSpaceOnUse" x1="0" y1="1369.505" x2="1" y2="1369.505" gradientTransform="matrix(869.748 0 0 -869.748 1.190190e-002 1191479.75)">
		<stop  offset="0" style="stop-color:#52C1AD"/>
		<stop  offset="1" style="stop-color:#DEE89A"/>
	</linearGradient>
	<rect x="22.6" y="26.1" clip-path="url(#SVGID_5_)" fill="url(#SVGID_6_)" width="847.2" height="658.7"/>
</g>
<g>
	<defs>
		<path id="SVGID_7_" d="M17,1347.7c8,2.7,18.3,1.3,29.4-5l10-5.8c60.5-34.9,364.6-210.5,486.2-280.7l50.4-29.1l276.7-159.8
			L685.6,684.8L17,1347.7z"/>
	</defs>
	<clipPath id="SVGID_8_">
		<use xlink:href="#SVGID_7_"  overflow="visible"/>
	</clipPath>
	
		<linearGradient id="SVGID_9_" gradientUnits="userSpaceOnUse" x1="0" y1="1369.5325" x2="1" y2="1369.5325" gradientTransform="matrix(0 684.756 684.756 0 -937352.125 684.764)">
		<stop  offset="0" style="stop-color:#EC413D"/>
		<stop  offset="0.1668" style="stop-color:#DA4452"/>
		<stop  offset="0.5748" style="stop-color:#B0487A"/>
		<stop  offset="0.8619" style="stop-color:#954A92"/>
		<stop  offset="1" style="stop-color:#8A4A9D"/>
	</linearGradient>
	<rect x="17" y="684.8" clip-path="url(#SVGID_8_)" fill="url(#SVGID_9_)" width="852.7" height="665.6"/>
</g>
<g>
	<defs>
		<path id="SVGID_10_" d="M685.6,684.8l184.1,182.6L1137,713.1c28.9-17.3,26.8-40.5,3.3-54.7l-2-1.1c-0.2-0.1-0.4-0.2-0.7-0.4
			c-26.3-14.2-267.9-154.7-267.9-154.7L685.6,684.8z"/>
	</defs>
	<clipPath id="SVGID_11_">
		<use xlink:href="#SVGID_10_"  overflow="visible"/>
	</clipPath>
	
		<linearGradient id="SVGID_12_" gradientUnits="userSpaceOnUse" x1="1.671360e-007" y1="1369.4924" x2="1" y2="1369.4924" gradientTransform="matrix(0 365.184 365.184 0 -499191 502.16)">
		<stop  offset="0" style="stop-color:#F58879"/>
		<stop  offset="0.1194" style="stop-color:#F69079"/>
		<stop  offset="0.7128" style="stop-color:#FCB877"/>
		<stop  offset="1" style="stop-color:#FEC874"/>
	</linearGradient>
	<rect x="685.6" y="502.2" clip-path="url(#SVGID_11_)" fill="url(#SVGID_12_)" width="480.2" height="365.2"/>
</g>
<g>
	<defs>
		<rect id="SVGID_13_" y="0" width="5413.5" height="1369.5"/>
	</defs>
	<clipPath id="SVGID_14_">
		<use xlink:href="#SVGID_13_"  overflow="visible"/>
	</clipPath>
	<path clip-path="url(#SVGID_14_)" fill="#4C4C4C" d="M4316.3,950.5c-25.8,0-49.2-4.8-70.5-14.2c-21.3-9.5-39.2-24.1-53.6-43.8h-4.3
		c2.9,23.1,4.3,45,4.3,65.7v162.7h-59.9V547.9h48.7l8.3,54.1h2.9c15.4-21.7,33.3-37.3,53.8-46.9c20.4-9.6,43.9-14.4,70.3-14.4
		c52.4,0,92.9,17.9,121.4,53.8c28.5,35.8,42.8,86.1,42.8,150.8c0,64.9-14.5,115.4-43.5,151.4C4408,932.6,4367.8,950.5,4316.3,950.5
		 M4307.7,591.6c-40.4,0-69.6,11.2-87.7,33.6c-18,22.4-27.3,58-27.8,106.8v13.3c0,55.6,9.3,95.3,27.8,119.3
		c18.5,23.9,48.2,35.9,89.1,35.9c34.2,0,60.9-13.8,80.3-41.5c19.3-27.6,29-65.8,29-114.4c0-49.3-9.7-87.1-29-113.5
		C4370.1,604.7,4342.8,591.6,4307.7,591.6"/>
	<rect x="4559.3" y="382" clip-path="url(#SVGID_14_)" fill="#4C4C4C" width="59.9" height="561.4"/>
	<path clip-path="url(#SVGID_14_)" fill="#4C4C4C" d="M4963.5,943.3l-11.9-56.3h-2.9c-19.7,24.8-39.4,41.6-59,50.3
		c-19.6,8.8-44.1,13.2-73.4,13.2c-39.2,0-69.9-10.1-92.2-30.3c-22.3-20.2-33.4-48.9-33.4-86.2c0-79.8,63.9-121.7,191.6-125.6
		l67.1-2.2v-24.5c0-31-6.7-54-20-68.7c-13.3-14.8-34.7-22.2-64-22.2c-33,0-70.2,10.1-111.8,30.3l-18.4-45.8
		c19.5-10.6,40.8-18.9,64.1-24.9c23.2-6,46.5-9,69.8-9c47.1,0,82.1,10.5,104.8,31.4c22.7,20.9,34.1,54.5,34.1,100.7v269.8
		L4963.5,943.3L4963.5,943.3L4963.5,943.3z M4828.2,901.1c37.3,0,66.5-10.2,87.8-30.7c21.3-20.4,31.9-49.1,31.9-85.9v-35.7
		l-59.9,2.5c-47.6,1.7-81.9,9.1-103,22.2c-21,13.1-31.6,33.5-31.6,61.2c0,21.6,6.5,38.1,19.7,49.4
		C4786.3,895.5,4804.6,901.1,4828.2,901.1"/>
	<path clip-path="url(#SVGID_14_)" fill="#4C4C4C" d="M5042.6,547.9h64.2l86.6,225.5c19,51.5,30.8,88.6,35.4,111.5h2.9
		c3.1-12.3,9.7-33.3,19.7-63c10-29.7,42.6-121,97.9-274h64.2l-169.9,450.3c-16.8,44.5-36.5,76.1-59,94.7
		c-22.5,18.6-50.1,27.9-82.8,27.9c-18.3,0-36.3-2-54.1-6.1v-48c13.2,2.9,28,4.3,44.4,4.3c41.1,0,70.5-23.1,88-69.3l22-56.3
		L5042.6,547.9z"/>
	<path clip-path="url(#SVGID_14_)" fill="#4C4C4C" d="M3206.9,584.7c19,15.7,58.7,48.8,58.7,111.7c0,61.2-34.7,90.2-69.5,117.4
		c-10.8,10.7-23.2,22.4-23.2,40.6c0,18.2,12.4,28.1,21.5,35.5l29.8,23.1c36.4,30.6,69.4,58.8,69.4,115.8
		c0,77.7-75.3,156.3-217.5,156.3c-119.9,0-177.8-57-177.8-118.3c0-29.8,14.8-71.9,63.7-100.9c51.2-31.4,120.8-35.5,158-38.1
		c-11.6-14.9-24.8-30.6-24.8-56.2c0-14,4.2-22.3,8.3-32.3c-9.1,0.8-18.2,1.7-26.5,1.7c-87.6,0-137.3-65.3-137.3-129.8
		c0-38.1,17.4-80.3,52.9-110.8c47.2-38.9,103.4-45.5,148.1-45.5h170.3l-52.9,29.8L3206.9,584.7L3206.9,584.7L3206.9,584.7z
		 M3148.2,951.9c-6.6-0.9-10.8-0.9-19-0.9c-7.4,0-52.2,1.7-86.9,13.3c-18.2,6.6-71.1,26.4-71.1,85.2c0,58.7,57.1,100.9,145.6,100.9
		c79.3,0,121.6-38.1,121.6-89.4C3238.4,1018.8,3211.1,996.6,3148.2,951.9 M3172.2,794.7c19-19,20.6-45.5,20.6-60.4
		c0-59.5-35.5-152.2-104.2-152.2c-21.5,0-44.7,10.7-57.9,27.3c-14,17.4-18.2,39.7-18.2,61.2c0,55.4,32.3,147.2,103.4,147.2
		C3136.6,817.9,3158.9,808,3172.2,794.7"/>
	<path clip-path="url(#SVGID_14_)" fill="#4C4C4C" d="M2686.3,938.6c-131.3,0-201.5-102.4-201.5-194.9
		c0-108.2,88.3-200.6,213.9-200.6c121.3,0,197.3,94.9,197.3,194.9C2896,835.4,2820.9,938.6,2686.3,938.6 M2789.5,871.8
		c19.8-26.4,24.8-59.5,24.8-91.7c0-72.7-34.7-211.4-137.1-211.4c-27.2,0-54.5,10.8-74.3,28.1c-32.2,28.9-38,65.2-38,100.8
		c0,81.7,40.5,216.2,140.4,216.2C2737.5,913.8,2770.5,898.2,2789.5,871.8"/>
	<path clip-path="url(#SVGID_14_)" fill="#4C4C4C" d="M2238.7,938.6c-131.3,0-201.5-102.4-201.5-194.9
		c0-108.2,88.4-200.6,213.9-200.6c121.4,0,197.3,94.9,197.3,194.9C2448.5,835.4,2373.3,938.6,2238.7,938.6 M2342,871.8
		c19.8-26.4,24.8-59.5,24.8-91.7c0-72.7-34.7-211.4-137.1-211.4c-27.2,0-54.5,10.8-74.3,28.1c-32.2,28.9-38,65.2-38,100.8
		c0,81.7,40.4,216.2,140.4,216.2C2290,913.8,2323,898.2,2342,871.8"/>
	<path clip-path="url(#SVGID_14_)" fill="#4C4C4C" d="M1974.2,925.7l-118.7,27.4c-48.2,7.5-91.3,14.1-137,14.1
		c-229.2,0-316.3-168.5-316.3-300.5c0-161,123.7-310.4,335.4-310.4c44.8,0,88,6.6,127,17.4c62.3,17.4,91.3,39,109.6,51.5l-68.9,65.6
		l-29,6.6l20.7-33.2c-28.2-27.4-79.7-78-177.6-78c-131.2,0-230,99.7-230,244.9c0,156,112.9,303,293.9,303
		c53.2,0,80.5-10.8,105.4-20.8V779.6l-125.3,6.6l66.4-35.7h176l-21.6,20.7c-5.9,5-6.7,6.7-8.3,13.3c-0.9,7.5-1.6,31.6-1.6,39.9
		L1974.2,925.7L1974.2,925.7L1974.2,925.7z"/>
	<path clip-path="url(#SVGID_14_)" fill="#4C4C4C" d="M3469.3,901.8c-27.4-2.5-33.1-7.5-33.1-39.9v-9.1V392.1
		c0.2-1.8,0.3-3.6,0.4-5.4c3.3-29,11.6-34,37.4-49h-118.8l-62.3,29.9h63.5v0.4l0-0.3v485.1v27.4c0,16.6-3.3,19.1-22.4,44h147
		l30.7-18.2C3497.6,904.3,3483.5,903.5,3469.3,901.8"/>
	<path clip-path="url(#SVGID_14_)" fill="#4C4C4C" d="M3807.1,909.4c-9,5-18.1,10.8-27.1,14.8c-27.3,12.4-55.3,15.7-80.1,15.7
		c-26.3,0-67.6-1.7-109.7-32.2c-58.5-41.3-84-112.2-84-174c0-127.8,103.9-190.4,188.8-190.4c29.7,0,60.2,7.4,85,23.1
		c41.2,27.2,51.9,62.6,57.6,81.6l-193.7,78.3l-63.5,4.9C3601,836.1,3671.9,897,3750.2,897c42,0,72.6-14.8,100.6-28.8L3807.1,909.4z
		 M3729.6,663.7c15.6-5.7,23.9-10.7,23.9-22.2c0-33-37.1-70.9-81.6-70.9c-33,0-94.8,25.6-94.8,114.6c0,14,1.7,28.8,2.5,43.7
		L3729.6,663.7z"/>
	<polygon clip-path="url(#SVGID_14_)" fill="#F9F9F9" points="3886.7,549 3886.7,603.4 3880.1,603.4 3880.1,549 3862.1,549 
		3862.1,543.4 3904.7,543.4 3904.7,549 	"/>
	<polygon clip-path="url(#SVGID_14_)" fill="#F9F9F9" points="3960.9,603.4 3960.9,548.5 3960.6,548.5 3943.8,603.4 3938.6,603.4 
		3921.7,548.5 3921.5,548.5 3921.5,603.4 3915.5,603.4 3915.5,543.4 3925.8,543.4 3941.1,591.9 3941.3,591.9 3956.4,543.4 
		3966.8,543.4 3966.8,603.4 	"/>
	<path clip-path="url(#SVGID_14_)" fill="#4C4C4C" d="M1567.1,194.6h-41.3c0-5.7-3.9-21.7-11.7-48.2h-59.6
		c-8.1,26-12.1,42.1-12.1,48.2h-38.8c0-3.3,10-30.9,30.1-82.5c20.1-51.6,30.1-80.1,30.1-85.3h48.7c0,4.9,9.1,32.9,27.3,84.1
		C1558,162,1567.1,189.9,1567.1,194.6 M1507.5,121.7c-14.7-44.3-22-68.3-22-71.9h-2.1c0,3.3-7.6,27.3-22.8,71.9H1507.5z"/>
	<path clip-path="url(#SVGID_14_)" fill="#4C4C4C" d="M1733.3,194.6h-31.8c0-3.5-11.8-22.1-35.4-55.8
		c-24.7-35.5-38.8-59.8-42.3-72.8h-2.1c2.1,18.8,3.2,35.8,3.2,51c0,21.2,0.6,47.1,1.8,77.6H1595c1.3-26.6,1.9-55.9,1.9-87.8
		c0-31.4-0.6-58.1-1.9-80.1h38.3c0,4.6,10.6,22.7,31.8,54.5c22.6,33.8,35.6,56.7,38.9,68.7h1.9c-2.1-19.2-3.1-36.3-3.1-51.6
		c0-23.3-0.6-47.2-1.8-71.7h32.2c-1.2,21.3-1.8,48-1.8,80.1C1731.5,139.1,1732.1,168.4,1733.3,194.6"/>
	<path clip-path="url(#SVGID_14_)" fill="#4C4C4C" d="M1920.1,104.9c0,24.4-7.8,45.7-23.5,63.9c-15.6,18.2-37.6,27.3-65.7,27.3
		c-12.7,0-30.3-0.5-52.6-1.5c1.1-26,1.7-55.2,1.7-87.8c0-31.3-0.6-58-1.7-80.1h22.6c3.7,0,9.2-0.1,16.5-0.4
		c7.3-0.3,12.1-0.4,14.3-0.4c31,0,53.5,7.7,67.5,23.2C1913.1,64.7,1920.1,83.2,1920.1,104.9 M1884.9,110.4
		c0-16.5-4.8-30.4-14.4-41.7c-9.6-11.3-24.3-16.9-44.1-16.9c-3.7,0-8.8,0.4-15.2,1.2c0.9,17.2,1.3,35.1,1.3,53.9
		c0,20.5,0.4,40.9,1.3,61.1c5.6,1.1,11.2,1.7,16.8,1.7c18.5,0,32.2-5.7,41.1-17.2C1880.5,140.9,1884.9,126.9,1884.9,110.4"/>
	<path clip-path="url(#SVGID_14_)" fill="#4C4C4C" d="M2092.4,194.6h-38.2c-10-30.4-17.6-49.2-22.9-56.3
		c-5.3-7.1-13.9-10.7-25.8-10.7c-5,0-9.8,0-14.3,0.1c0,22.1,0.4,44.4,1.2,66.9h-35.8c1.1-26,1.7-55.2,1.7-87.8
		c0-31.3-0.6-58-1.7-80.1h22.3c2.6,0,8-0.1,16.2-0.4c8.2-0.3,15.8-0.4,22.8-0.4c39.4,0,59.2,13.5,59.2,40.5
		c0,21.4-11.3,36.3-33.8,44.7v1.9c8.7,2.4,16.3,9.2,22.8,20.3C2072.5,144.5,2081.3,164.9,2092.4,194.6 M2044.1,76
		c0-17.1-11-25.7-33-25.7c-8.1,0-15.2,0.6-21.4,1.8c0.9,13.3,1.4,30.7,1.4,52.1c4.7,0.2,8.7,0.3,12,0.3
		C2030.4,104.5,2044.1,95,2044.1,76"/>
	<path clip-path="url(#SVGID_14_)" fill="#4C4C4C" d="M2277.2,107.6c0,26.4-8.1,48.3-24.2,65.6c-16.2,17.4-36.1,26-59.9,26
		c-22.7,0-41.7-8-57-23.9c-15.3-15.9-22.9-36.2-22.9-60.8c0-26.4,8.1-48.3,24.2-65.6c16.2-17.4,36.1-26,59.9-26
		c22.7,0,41.7,7.9,57,23.8C2269.5,62.6,2277.2,82.9,2277.2,107.6 M2241.6,111.3c0-18-4.6-32.5-13.8-43.7
		c-9.2-11.2-20.5-16.8-34-16.8c-12.6,0-23.2,5.6-32,16.9s-13.2,25.5-13.2,42.7c0,17.9,4.6,32.4,13.9,43.6
		c9.2,11.2,20.6,16.8,34,16.8c12.5,0,23.2-5.7,32-17C2237.2,142.6,2241.6,128.4,2241.6,111.3"/>
	<path clip-path="url(#SVGID_14_)" fill="#4C4C4C" d="M2350.1,194.6h-36.5c1.1-26.6,1.7-55.9,1.7-87.8c0-31.4-0.6-58.1-1.7-80.1
		h36.5c-1.1,21.7-1.7,48.3-1.7,80.1C2348.4,139.2,2349,168.5,2350.1,194.6"/>
	<path clip-path="url(#SVGID_14_)" fill="#4C4C4C" d="M2536.9,104.9c0,24.4-7.8,45.7-23.5,63.9c-15.6,18.2-37.6,27.3-65.7,27.3
		c-12.7,0-30.3-0.5-52.6-1.5c1.1-26,1.7-55.2,1.7-87.8c0-31.3-0.6-58-1.7-80.1h22.6c3.7,0,9.2-0.1,16.5-0.4
		c7.3-0.3,12.1-0.4,14.3-0.4c31,0,53.5,7.7,67.5,23.2C2529.9,64.7,2536.9,83.2,2536.9,104.9 M2501.7,110.4
		c0-16.5-4.8-30.4-14.4-41.7c-9.6-11.3-24.3-16.9-44.1-16.9c-3.7,0-8.8,0.4-15.2,1.2c0.9,17.2,1.3,35.1,1.3,53.9
		c0,20.5,0.4,40.9,1.3,61.1c5.6,1.1,11.2,1.7,16.8,1.7c18.5,0,32.2-5.7,41.1-17.2C2497.3,140.9,2501.7,126.9,2501.7,110.4"/>
	<path clip-path="url(#SVGID_14_)" fill="#4C4C4C" d="M2784.8,194.6h-41.3c0-5.7-3.9-21.7-11.7-48.2h-59.6
		c-8.1,26-12.1,42.1-12.1,48.2h-38.8c0-3.3,10-30.9,30.1-82.5c20.1-51.6,30.1-80.1,30.1-85.3h48.7c0,4.9,9.1,32.9,27.3,84.1
		C2775.7,162,2784.8,189.9,2784.8,194.6 M2725.2,121.7c-14.7-44.3-22.1-68.3-22.1-71.9h-2.1c0,3.3-7.6,27.3-22.8,71.9H2725.2z"/>
	<path clip-path="url(#SVGID_14_)" fill="#4C4C4C" d="M2935.2,70.7c0,20.5-7.6,35.7-22.9,45.5s-34,14.7-56.1,14.7
		c-4,0-6.9-0.1-8.6-0.3c0,16.2,0.5,37.5,1.4,63.9h-36.2c1.1-24.8,1.7-54.1,1.7-87.8c0-30.9-0.6-57.6-1.7-80.1h22.4
		c3.2,0,9.3-0.1,18.3-0.4c9-0.3,16.8-0.4,23.5-0.4c16.3,0,30.1,3.7,41.4,11.1C2929.5,44.5,2935.2,55.7,2935.2,70.7 M2901.9,77.8
		c0-18.4-12.2-27.6-36.6-27.6c-6.1,0-12.6,0.6-19.3,1.9c0.9,16.2,1.4,34.6,1.4,55.2c2.1,0.2,4.6,0.3,7.5,0.3
		C2886.2,107.6,2901.9,97.7,2901.9,77.8"/>
	<path clip-path="url(#SVGID_14_)" fill="#4C4C4C" d="M3089.8,70.7c0,20.5-7.6,35.7-22.9,45.5c-15.3,9.8-34,14.7-56.1,14.7
		c-4,0-6.9-0.1-8.6-0.3c0,16.2,0.5,37.5,1.4,63.9h-36.2c1.1-24.8,1.7-54.1,1.7-87.8c0-30.9-0.6-57.6-1.7-80.1h22.4
		c3.2,0,9.3-0.1,18.3-0.4c9-0.3,16.8-0.4,23.5-0.4c16.3,0,30.1,3.7,41.4,11.1C3084.1,44.5,3089.8,55.7,3089.8,70.7 M3056.5,77.8
		c0-18.4-12.2-27.6-36.6-27.6c-6.1,0-12.6,0.6-19.3,1.9c0.9,16.2,1.4,34.6,1.4,55.2c2.1,0.2,4.6,0.3,7.5,0.3
		C3040.8,107.6,3056.5,97.7,3056.5,77.8"/>
	<path clip-path="url(#SVGID_14_)" fill="#4C4C4C" d="M3342.5,107.6c0,26.4-8.1,48.3-24.2,65.6c-16.2,17.4-36.1,26-59.9,26
		c-22.7,0-41.7-8-57-23.9c-15.3-15.9-22.9-36.2-22.9-60.8c0-26.4,8.1-48.3,24.2-65.6c16.2-17.4,36.1-26,59.9-26
		c22.7,0,41.7,7.9,57,23.8C3334.9,62.6,3342.5,82.9,3342.5,107.6 M3307,111.3c0-18-4.6-32.5-13.8-43.7s-20.5-16.8-34-16.8
		c-12.6,0-23.2,5.6-32,16.9s-13.2,25.5-13.2,42.7c0,17.9,4.6,32.4,13.9,43.6c9.2,11.2,20.6,16.8,34,16.8c12.6,0,23.2-5.7,32-17
		C3302.6,142.6,3307,128.4,3307,111.3"/>
	<path clip-path="url(#SVGID_14_)" fill="#4C4C4C" d="M3517.3,194.6h-31.8c0-3.5-11.8-22.1-35.4-55.8
		c-24.7-35.5-38.8-59.8-42.3-72.8h-2.1c2.1,18.8,3.2,35.8,3.2,51c0,21.2,0.6,47.1,1.8,77.6h-31.7c1.3-26.6,1.9-55.9,1.9-87.8
		c0-31.4-0.6-58.1-1.9-80.1h38.3c0,4.6,10.6,22.7,31.8,54.5c22.6,33.8,35.6,56.7,38.9,68.7h1.9c-2.1-19.2-3.1-36.3-3.1-51.6
		c0-23.3-0.6-47.2-1.8-71.7h32.2c-1.2,21.3-1.8,48-1.8,80.1C3515.5,139.1,3516.1,168.4,3517.3,194.6"/>
</g>
</svg>
