<?xml version="1.0" encoding="utf-8"?>
<!-- Generator: Adobe Illustrator 17.1.0, SVG Export Plug-In . SVG Version: 6.00 Build 0)  -->
<!DOCTYPE svg PUBLIC "-//W3C//DTD SVG 1.1//EN" "http://www.w3.org/Graphics/SVG/1.1/DTD/svg11.dtd">
<svg version="1.1" id="Layer_1" xmlns="http://www.w3.org/2000/svg" xmlns:xlink="http://www.w3.org/1999/xlink" x="0px" y="0px"
	 width="13px" height="39.3px" viewBox="0 0 13 39.3" enable-background="new 0 0 13 39.3" xml:space="preserve">
<polygon fill="#F1B21D" points="6.5,26.3 4.9,31.3 0,31.3 4,34.3 2.5,39.3 6.5,36.2 10.5,39.3 9,34.3 13,31.3 8.1,31.3 "/>
<polygon fill="#F1B21D" points="6.5,13.2 4.9,18.3 0,18.3 4,21.3 2.5,26.2 6.5,23.2 10.5,26.2 9,21.3 13,18.3 8.1,18.3 "/>
<polygon fill="#BFC1C3" points="6.5,0 4.9,5.1 0,5.1 4,8 2.5,13 6.5,9.9 10.5,13 9,8 13,5.1 8.1,5.1 "/>
</svg>
