<?xml version="1.0" encoding="utf-8"?>
<!-- Generator: Adobe Illustrator 17.1.0, SVG Export Plug-In . SVG Version: 6.00 Build 0)  -->
<!DOCTYPE svg PUBLIC "-//W3C//DTD SVG 1.1//EN" "http://www.w3.org/Graphics/SVG/1.1/DTD/svg11.dtd">
<svg version="1.1" id="Layer_1" xmlns="http://www.w3.org/2000/svg" xmlns:xlink="http://www.w3.org/1999/xlink" x="0px" y="0px"
	 width="1213.6px" height="323.8px" viewBox="0 0 1213.6 323.8" fill="#272727" enable-background="new 0 0 1213.6 323.8" xml:space="preserve">
<g>
	<defs>
		<rect id="SVGID_1_" width="1213.6" height="323.8"/>
	</defs>
	<clipPath id="SVGID_2_">
		<use xlink:href="#SVGID_1_"  overflow="visible"/>
	</clipPath>
	<path clip-path="url(#SVGID_2_)" d="M192.3,150.6c-0.3-35.8,29.3-53.2,30.6-54c-16.8-24.4-42.8-27.8-51.9-28.1
		c-21.8-2.3-43,13.1-54.1,13.1c-11.3,0-28.5-12.8-46.9-12.5c-23.7,0.4-46,14.1-58.1,35.5c-25.1,43.5-6.4,107.5,17.7,142.7
		c12.1,17.2,26.1,36.5,44.6,35.8c18-0.7,24.8-11.5,46.5-11.5c21.6,0,27.9,11.5,46.7,11.1c19.4-0.3,31.5-17.3,43.2-34.7
		c13.9-19.7,19.5-39.2,19.7-40.2C229.8,207.6,192.7,193.4,192.3,150.6"/>
	<path clip-path="url(#SVGID_2_)" d="M156.8,45.4c9.7-12.1,16.3-28.6,14.5-45.4c-14,0.6-31.6,9.7-41.7,21.6
		c-8.9,10.5-16.9,27.6-14.9,43.7C130.5,66.5,146.7,57.3,156.8,45.4"/>
	<path clip-path="url(#SVGID_2_)" d="M453.5,280.6h-25.2l-13.8-43.4h-48l-13.1,43.4h-24.5l47.5-147.7h29.4L453.5,280.6z M410.4,219
		l-12.5-38.5c-1.3-4-3.8-13.2-7.4-27.8H390c-1.5,6.3-3.8,15.6-7,27.8L370.7,219H410.4z"/>
	<path clip-path="url(#SVGID_2_)" d="M575.6,226.1c0,18.1-4.9,32.4-14.8,42.9c-8.8,9.4-19.8,14-32.8,14c-14.1,0-24.2-5-30.4-15.1
		v55.9h-23.7V209.1c0-11.4-0.3-23-0.9-35h20.8l1.3,16.9h0.4c7.9-12.7,19.9-19.1,35.9-19.1c12.6,0,23,5,31.4,14.9
		C571.4,196.8,575.6,209.8,575.6,226.1 M551.5,226.9c0-10.4-2.3-18.9-7-25.6c-5.1-7-12-10.5-20.6-10.5c-5.8,0-11.1,2-15.9,5.8
		c-4.7,3.9-7.9,8.9-9.3,15.2c-0.7,2.9-1.1,5.3-1.1,7.2v17.8c0,7.7,2.4,14.3,7.1,19.6c4.7,5.3,10.9,8,18.5,8
		c8.9,0,15.8-3.5,20.8-10.3C549,247.2,551.5,238.2,551.5,226.9"/>
	<path clip-path="url(#SVGID_2_)" d="M698,226.1c0,18.1-4.9,32.4-14.8,42.9c-8.8,9.4-19.8,14-32.8,14c-14.1,0-24.2-5-30.4-15.1v55.9
		h-23.7V209.1c0-11.4-0.3-23-0.9-35h20.8l1.3,16.9h0.4c7.9-12.7,19.9-19.1,35.9-19.1c12.6,0,23,5,31.4,14.9
		C693.8,196.8,698,209.8,698,226.1 M673.9,226.9c0-10.4-2.3-18.9-7-25.6c-5.1-7-12-10.5-20.6-10.5c-5.8,0-11.1,2-15.9,5.8
		c-4.7,3.9-7.8,8.9-9.3,15.2c-0.7,2.9-1.1,5.3-1.1,7.2v17.8c0,7.7,2.4,14.3,7.1,19.6c4.7,5.3,10.9,8,18.5,8
		c8.9,0,15.9-3.5,20.8-10.3C671.5,247.2,673.9,238.2,673.9,226.9"/>
	<path clip-path="url(#SVGID_2_)" d="M835,239.2c0,12.6-4.4,22.8-13.1,30.7c-9.6,8.6-23,12.9-40.2,12.9c-15.9,0-28.6-3.1-38.2-9.2
		l5.5-19.7c10.4,6.1,21.8,9.2,34.2,9.2c8.9,0,15.9-2,20.8-6c5-4,7.5-9.4,7.5-16.1c0-6-2.1-11-6.1-15.1c-4.1-4.1-10.9-7.9-20.4-11.4
		c-26.1-9.7-39-23.8-39-42.3c0-12.1,4.6-22,13.7-29.8c9.1-7.7,21.2-11.6,36.3-11.6c13.4,0,24.6,2.3,33.5,7l-6,19.2
		c-8.4-4.5-17.8-6.8-28.4-6.8c-8.3,0-14.9,2.1-19.6,6.1c-3.9,3.7-5.9,8.1-5.9,13.4c0,5.8,2.3,10.7,6.8,14.4
		c3.9,3.5,11.1,7.3,21.5,11.4c12.7,5.1,22,11.1,28,18C832,220.4,835,229,835,239.2"/>
	<path clip-path="url(#SVGID_2_)" d="M913.4,191.9h-26.1v51.7c0,13.1,4.6,19.7,13.8,19.7c4.2,0,7.7-0.4,10.5-1.1l0.7,18
		c-4.7,1.7-10.8,2.6-18.4,2.6c-9.4,0-16.6-2.9-21.9-8.6c-5.3-5.7-7.9-15.3-7.9-28.7v-53.7h-15.5v-17.7h15.5v-19.5l23.2-7v26.5h26.1
		V191.9"/>
	<path clip-path="url(#SVGID_2_)" d="M1030.8,226.5c0,16.4-4.7,29.8-14,40.3c-9.8,10.8-22.8,16.2-39,16.2
		c-15.6,0-28.1-5.2-37.4-15.5c-9.3-10.3-13.9-23.4-13.9-39.2c0-16.5,4.8-30,14.3-40.5c9.6-10.5,22.5-15.8,38.7-15.8
		c15.6,0,28.2,5.2,37.7,15.6C1026.3,197.6,1030.8,210.6,1030.8,226.5 M1006.3,227c0-9.8-2.1-18.1-6.3-25.1
		c-5-8.5-12.1-12.7-21.3-12.7c-9.5,0-16.8,4.2-21.7,12.7c-4.3,7-6.3,15.5-6.3,25.6c0,9.8,2.1,18.2,6.3,25.1
		c5.1,8.5,12.3,12.7,21.5,12.7c9,0,16.1-4.3,21.3-12.9C1004.1,245.2,1006.3,236.8,1006.3,227"/>
	<path clip-path="url(#SVGID_2_)" d="M1107.8,194.9c-2.3-0.4-4.8-0.6-7.5-0.6c-8.3,0-14.8,3.1-19.3,9.4c-3.9,5.5-5.9,12.6-5.9,21
		v55.9h-23.7v-73c0-12.3-0.2-23.5-0.7-33.5h20.6l0.9,20.4h0.7c2.5-7,6.4-12.7,11.8-16.9c5.3-3.8,11-5.7,17.1-5.7
		c2.2,0,4.2,0.2,5.9,0.4L1107.8,194.9"/>
	<path clip-path="url(#SVGID_2_)" d="M1213.6,222.3c0,4.2-0.3,7.8-0.9,10.7h-71c0.3,10.5,3.7,18.6,10.3,24.1
		c6,4.9,13.7,7.4,23.2,7.4c10.5,0,20.1-1.7,28.7-5l3.7,16.4c-10.1,4.4-22,6.6-35.7,6.6c-16.5,0-29.5-4.9-38.9-14.6
		c-9.4-9.7-14.1-22.8-14.1-39.1c0-16,4.4-29.4,13.2-40.1c9.2-11.4,21.6-17.1,37.2-17.1c15.3,0,27,5.7,34.8,17.1
		C1210.4,197.9,1213.6,209,1213.6,222.3 M1191,216.2c0.2-7-1.4-13.1-4.6-18.2c-4.1-6.6-10.4-9.9-18.8-9.9c-7.7,0-14,3.2-18.8,9.6
		c-3.9,5.1-6.3,11.3-7,18.4L1191,216.2z"/>
	<path clip-path="url(#SVGID_2_)" d="M399,80.1h-12.4l-6.8-21.3h-23.6l-6.5,21.3h-12L361,7.5h14.4L399,80.1z M377.7,49.8l-6.1-19
		c-0.6-1.9-1.8-6.5-3.7-13.7h-0.2c-0.8,3.1-1.8,7.6-3.5,13.7l-6,19H377.7z"/>
	<path clip-path="url(#SVGID_2_)" d="M457.4,27.7l-19.8,52.4h-11.3l-19.2-52.4h12.5l8.9,27.7c1.5,4.6,2.8,9,3.8,13.2h0.3
		c0.9-3.8,2.2-8.2,3.8-13.2l8.8-27.7H457.4"/>
	<path clip-path="url(#SVGID_2_)" d="M499.6,80.1l-0.9-6h-0.3c-3.6,4.8-8.7,7.2-15.3,7.2c-9.4,0-16-6.6-16-15.4
		c0-12.9,11.2-19.6,30.6-19.6v-1c0-6.9-3.7-10.3-10.9-10.3c-5.2,0-9.7,1.3-13.7,3.9l-2.4-7.6c4.8-3,10.9-4.5,18-4.5
		c13.7,0,20.6,7.2,20.6,21.7v19.3c0,5.3,0.2,9.4,0.8,12.5L499.6,80.1z M498,54c-12.9,0-19.4,3.1-19.4,10.6c0,5.5,3.3,8.2,8,8.2
		c5.9,0,11.4-4.5,11.4-10.7V54z"/>
	<path clip-path="url(#SVGID_2_)" d="M535.2,19.1c-3.9,0-6.9-3-6.9-7s3.1-6.9,7.1-6.9s7.2,2.9,7.1,6.9
		C542.5,16.3,539.5,19.1,535.2,19.1 M529.6,27.7h11.6V80h-11.6V27.7z"/>
	<rect x="561.9" y="3.7" clip-path="url(#SVGID_2_)" width="11.6" height="76.3"/>
	<path clip-path="url(#SVGID_2_)" d="M622.9,80.1l-0.9-6h-0.3c-3.6,4.8-8.7,7.2-15.3,7.2c-9.4,0-16-6.6-16-15.4
		c0-12.9,11.2-19.6,30.6-19.6v-1c0-6.9-3.7-10.3-10.9-10.3c-5.2,0-9.7,1.3-13.7,3.9l-2.4-7.7c4.8-3,10.9-4.5,18-4.5
		c13.7,0,20.6,7.2,20.6,21.7v19.3c0,5.3,0.2,9.4,0.7,12.5h-10.4V80.1z M621.3,54c-12.9,0-19.4,3.1-19.4,10.6c0,5.5,3.3,8.2,8,8.2
		c5.9,0,11.4-4.5,11.4-10.7V54z"/>
	<path clip-path="url(#SVGID_2_)" d="M679.8,81.3c-7.4,0-12.9-3.1-16.5-9.3h-0.2l-0.7,8.1h-9.9c0.3-4.2,0.4-8.9,0.4-14.1V3.7h11.7
		v31.7h0.2c3.5-5.8,9-8.7,16.7-8.7c12.6,0,21.4,10.8,21.4,26.5C702.9,69.4,693.1,81.3,679.8,81.3 M677.4,35.8
		c-6.7,0-12.8,5.8-12.8,13.9v9.2c0,7.2,5.5,13.1,12.6,13.1c8.7,0,13.9-7.1,13.9-18.4C691.1,43,685.7,35.8,677.4,35.8"/>
	<rect x="720.1" y="3.7" clip-path="url(#SVGID_2_)" width="11.6" height="76.3"/>
	<path clip-path="url(#SVGID_2_)" d="M795,56.7h-34.9c0.2,9.9,6.8,15.5,16.5,15.5c5.2,0,9.9-0.9,14.1-2.5l1.8,8.1
		C787.6,80,781.8,81,775,81c-16.4,0-26.1-10.3-26.1-26.4c0-16,9.9-28.1,24.8-28.1c13.3,0,21.8,9.9,21.8,24.9
		C795.5,53.5,795.4,55.3,795,56.7 M784.4,48.4c0-8.1-4.1-13.8-11.5-13.8c-6.7,0-11.9,5.8-12.7,13.8H784.4z"/>
	<path clip-path="url(#SVGID_2_)" d="M865.5,81.3c-15.3,0-25.2-11.4-25.2-26.9c0-16.2,10.1-27.7,26.1-27.7
		c15.1,0,25.2,10.9,25.2,26.8C891.6,69.8,881.2,81.3,865.5,81.3 M866,35.2c-8.4,0-13.8,7.9-13.8,18.8c0,10.8,5.5,18.6,13.7,18.6
		s13.7-8.4,13.7-18.9C879.5,43.1,874.2,35.2,866,35.2"/>
	<path clip-path="url(#SVGID_2_)" d="M954.1,80.1h-11.6V50c0-9.3-3.6-13.9-10.6-13.9c-6.9,0-11.6,5.9-11.6,12.8V80h-11.6V42.7
		c0-4.6-0.1-9.6-0.4-15h10.2l0.5,8.1h0.3c3.1-5.6,9.5-9.2,16.6-9.2c11,0,18.2,8.4,18.2,22.1V80.1"/>
	<path clip-path="url(#SVGID_2_)" d="M1030.2,36.5h-12.8v25.4c0,6.5,2.3,9.7,6.8,9.7c2,0,3.8-0.2,5.2-0.5l0.3,8.8
		c-2.3,0.9-5.3,1.3-9,1.3c-9.2,0-14.6-5.1-14.6-18.3V36.5h-7.6v-8.7h7.6v-9.6l11.4-3.5v13h12.8L1030.2,36.5"/>
	<path clip-path="url(#SVGID_2_)" d="M1091.8,80.1h-11.6V50.2c0-9.4-3.6-14.1-10.6-14.1c-6,0-11.6,4.1-11.6,12.4V80h-11.6V3.7h11.6
		v31.4h0.2c3.7-5.7,8.9-8.5,15.7-8.5c11.1,0,17.9,8.6,17.9,22.3V80.1"/>
	<path clip-path="url(#SVGID_2_)" d="M1151.2,56.7h-34.9c0.2,9.9,6.8,15.5,16.5,15.5c5.2,0,9.9-0.9,14.1-2.5l1.8,8.1
		c-4.9,2.2-10.7,3.2-17.5,3.2c-16.4,0-26.1-10.3-26.1-26.4c0-16,9.9-28.1,24.8-28.1c13.3,0,21.8,9.9,21.8,24.9
		C1151.7,53.5,1151.6,55.3,1151.2,56.7 M1140.6,48.4c0-8.1-4.1-13.8-11.5-13.8c-6.7,0-12,5.8-12.7,13.8H1140.6z"/>
</g>
</svg>
