<svg xmlns="http://www.w3.org/2000/svg" width="29" height="25" viewBox="0 0 29 25"><path fill="#fff" d="M15 6.57a6.8 6.8 0 0 0-6.8 6.83c0 1.89.75 3.59 2 4.82a6.77 6.77 0 0 0 9.6 0 6.8 6.8 0 0 0 0-9.65 6.75 6.75 0 0 0-4.8-2zM1.8 2.78a.8.8 0 0 0-.8.8v19.63c0 .44.36.8.8.8h26.4a.8.8 0 0 0 .79-.8V3.58a.8.8 0 0 0-.79-.8H11.17V.79a.78.78 0 0 0-.79-.79H4.33a.8.8 0 0 0-.8.79v1.99zm3.32 0V1.59h4.46v1.19zM27.4 22.42H2.58V4.38H27.4zM18.68 9.69A5.24 5.24 0 0 1 15 18.63a5.2 5.2 0 0 1-5.21-5.23 5.22 5.22 0 0 1 8.9-3.71z"/></svg>