<?xml version="1.0" encoding="utf-8"?>
<!-- Generator: Adobe Illustrator 19.2.0, SVG Export Plug-In . SVG Version: 6.00 Build 0)  -->
<svg version="1.0" id="Layer_1" xmlns="http://www.w3.org/2000/svg" xmlns:xlink="http://www.w3.org/1999/xlink" x="0px" y="0px"
	 viewBox="0 0 36 18" style="enable-background:new 0 0 36 18;" xml:space="preserve">
<style type="text/css">
	.st0{fill:#FFFFFF;}
</style>
<g>
	<g>
		<path class="st0" d="M35.2,0H10.6c0,0,0,0,0,0c0,0,0,0,0,0c0,0,0,0,0,0c0,0,0,0,0,0c0,0,0,0,0,0c0,0,0,0,0,0c0,0,0,0,0,0
			c0,0,0,0,0,0c0,0,0,0,0,0c0,0,0,0,0,0c0,0,0,0,0,0c0,0,0,0,0,0c0,0,0,0,0,0c0,0,0,0,0,0c0,0,0,0,0,0c0,0,0,0,0,0c0,0,0,0,0,0
			c0,0,0,0,0,0c0,0,0,0,0,0c0,0,0,0,0,0c0,0,0,0,0,0c0,0,0,0,0,0c0,0,0,0,0,0c0,0,0,0,0,0c0,0,0,0,0,0c0,0,0,0,0,0c0,0,0,0,0,0
			c0,0,0,0,0,0c0,0,0,0,0,0c0,0,0,0,0,0c0,0,0,0,0,0c0,0,0,0,0,0c0,0,0,0,0,0c0,0,0,0,0,0v4.7c0,0.4,0.3,0.8,0.8,0.8
			c0.4,0,0.8-0.3,0.8-0.8v-3l6.9,6.1c0,0-0.1,0.1-0.1,0.1l-6.8,6.7v-5.1c0-0.4-0.3-0.8-0.8-0.8c-0.4,0-0.8,0.3-0.8,0.8v0.9h-4
			C5.4,11.3,5,11.6,5,12c0,0.4,0.3,0.8,0.8,0.8h4v4.4c0,0.4,0.3,0.8,0.8,0.8h24.6c0,0,0.1,0,0.1,0c0,0,0,0,0,0c0,0,0,0,0,0
			c0,0,0,0,0,0c0,0,0,0,0,0c0,0,0,0,0,0c0,0,0,0,0,0c0,0,0,0,0,0c0,0,0,0,0,0c0,0,0,0,0,0c0,0,0,0,0,0c0,0,0,0,0,0c0,0,0,0,0,0
			c0,0,0,0,0,0c0,0,0,0,0,0c0,0,0,0,0,0c0,0,0,0,0,0c0,0,0,0,0,0c0,0,0,0,0,0c0,0,0,0,0,0c0,0,0,0,0,0c0,0,0,0,0,0c0,0,0,0,0,0
			c0,0,0,0,0,0c0,0,0,0,0,0c0,0,0,0,0,0c0,0,0,0,0,0c0,0,0,0,0,0c0,0,0,0,0,0c0,0,0-0.1,0-0.1V0.8C36,0.3,35.7,0,35.2,0z M12.5,16.5
			l6.8-6.7c0.1-0.1,0.1-0.1,0.1-0.2l2.9,2.6c0.1,0.1,0.3,0.2,0.5,0.2c0.2,0,0.4-0.1,0.5-0.2l3-2.5c0,0,0.1,0.1,0.1,0.1l6.8,6.7H12.5
			z M34.4,15.4l-6.8-6.7c0,0,0,0,0,0l5.1-4.3c0.3-0.3,0.4-0.8,0.1-1.1c-0.3-0.3-0.8-0.4-1.1-0.1l-8.8,7.4L12.7,1.5h21.8V15.4z
			 M0.8,8.8H14c0.4,0,0.8-0.3,0.8-0.8c0-0.4-0.3-0.8-0.8-0.8H0.8C0.3,7.2,0,7.6,0,8C0,8.4,0.3,8.8,0.8,8.8z M2.1,4.5h5.9
			c0.4,0,0.8-0.3,0.8-0.8C8.8,3.3,8.5,3,8.1,3H2.1C1.7,3,1.4,3.3,1.4,3.8C1.4,4.2,1.7,4.5,2.1,4.5z M6.5,14.5H0.8
			c-0.4,0-0.8,0.3-0.8,0.8C0,15.7,0.3,16,0.8,16h5.7c0.4,0,0.8-0.3,0.8-0.8C7.3,14.8,6.9,14.5,6.5,14.5z"/>
	</g>
</g>
</svg>
