<?xml version="1.0" encoding="utf-8"?>
<!-- Generator: Adobe Illustrator 17.1.0, SVG Export Plug-In . SVG Version: 6.00 Build 0)  -->
<!DOCTYPE svg PUBLIC "-//W3C//DTD SVG 1.1//EN" "http://www.w3.org/Graphics/SVG/1.1/DTD/svg11.dtd">
<svg version="1.1" id="Layer_1" xmlns="http://www.w3.org/2000/svg" xmlns:xlink="http://www.w3.org/1999/xlink" x="0px" y="0px"
	 width="34.602px" height="38px" viewBox="0 0 34.602 38" enable-background="new 0 0 34.602 38" xml:space="preserve">
<polygon fill="#FEFEFE" points="19.369,16.237 19.369,16.263 19.395,16.237 "/>
<g>
	<defs>
		<rect id="SVGID_1_" width="34.602" height="38"/>
	</defs>
	<clipPath id="SVGID_2_">
		<use xlink:href="#SVGID_1_"  overflow="visible"/>
	</clipPath>
	<path clip-path="url(#SVGID_2_)" fill="#FEFEFE" d="M34.602,17.311L17.301,0L0,17.311L1.688,19L0,20.689L17.301,38l17.301-17.311
		L32.914,19L34.602,17.311z M0.497,17.311L17.301,0.497l16.804,16.814l-1.44,1.44l-2.931-2.933v-2.619h-2.618l-9.815-9.821
		l-9.815,9.821H4.895v2.593l-2.958,2.959L0.497,17.311z M4.895,18.961v2.33h2.329l10.077,10.083l10.077-10.083h2.356v-2.357
		l1.309-1.309L32.417,19L17.301,34.124L2.186,19l1.374-1.375L4.895,18.961z M3.821,17.389l1.074-1.076v2.15L3.821,17.389z
		 M15.626,16.368v1.65h-1.335v1.073h1.754v1.624H12.25v-6.94h3.795v1.624h-1.754v0.969H15.626z M26.881,21.291l-9.58,9.585
		l-9.58-9.585H26.881z M20.521,13.775h2.146l-1.623,3.352l1.806,3.588h-2.172l-1.283-2.697v2.697h-2.041v-6.94h2.041v2.462
		L20.521,13.775z M26.75,19.825h-1.361l-0.157,0.89h-2.12l1.832-6.94h2.46l1.597,6.94h-2.094L26.75,19.825z M8.001,13.199l9.3-9.323
		l9.3,9.323H8.001z M8.454,17.311H8.48c0.079-0.55,0.786-3.536,0.786-3.536h2.198l-2.041,6.94H7.355l-1.728-6.94h2.121
		C7.748,13.775,8.376,16.761,8.454,17.311 M29.734,18.437V16.34l1.047,1.049L29.734,18.437z M34.105,20.689L17.301,37.502
		L0.497,20.689l1.44-1.44l15.364,15.372l15.364-15.372L34.105,20.689z"/>
	<path clip-path="url(#SVGID_2_)" fill="#FEFEFE" d="M26.148,15.425h-0.026c-0.053,0.445-0.105,0.89-0.183,1.309l-0.288,1.362h0.863
		l-0.209-1.362C26.226,16.315,26.2,15.87,26.148,15.425"/>
</g>
</svg>
