<svg xmlns="http://www.w3.org/2000/svg" width="28" height="20" viewBox="0 0 28 20"><path fill="#fff" d="M27.55 1.1a.87.87 0 0 0-.88.04l-7.4 4.82V3.97a2.98 2.98 0 0 0-3-2.95H3c-1.65 0-3 1.32-3 2.95v13.06a2.98 2.98 0 0 0 3 2.95h13.28c1.65 0 3-1.32 3-2.95v-1.99l7.39 4.82c.14.09.3.14.47.14.14 0 .28-.03.4-.1a.84.84 0 0 0 .46-.74V1.84a.84.84 0 0 0-.45-.74zm-9.99 15.93c0 .7-.57 1.27-1.28 1.27H3c-.7 0-1.29-.57-1.29-1.27V3.97c0-.7.58-1.27 1.3-1.27h13.27c.7 0 1.28.57 1.28 1.27zm8.72.55l-7-4.56V7.98l7-4.56z"/></svg>